<?xml version="1.0" encoding="UTF-8"?><svg id="Layer_2" xmlns="http://www.w3.org/2000/svg" viewBox="0 0 340 125"><defs><style>.cls-1,.cls-2{fill:#d91a6c;}.cls-3{fill:#2da0d7;}.cls-4{fill:#828185;}.cls-2{fill-rule:evenodd;}</style></defs><g id="Layer_1-2"><g><g><path class="cls-4" d="M9.64,121.47v-8.62l-3.71,6.61h-.8l-3.72-6.61v8.62H0v-11.15H1.49l4.04,7.24,4.05-7.24h1.48v11.15h-1.41Z"/><path class="cls-4" d="M15.54,121.62c-.39,0-.75-.07-1.08-.2-.34-.13-.63-.31-.87-.54-.25-.23-.44-.5-.58-.81-.14-.31-.21-.65-.21-1.01s.08-.72,.25-1.03c.17-.31,.41-.57,.71-.79,.31-.22,.68-.39,1.1-.52s.89-.19,1.39-.19c.4,0,.8,.04,1.21,.11,.41,.07,.77,.17,1.08,.3v-.66c0-.67-.19-1.2-.57-1.58s-.91-.57-1.6-.57c-.83,0-1.7,.32-2.61,.96l-.46-.9c1.06-.71,2.12-1.07,3.19-1.07s1.92,.29,2.52,.86c.6,.58,.9,1.39,.9,2.43v3.35c0,.32,.15,.49,.44,.5v1.19c-.15,.02-.27,.04-.36,.05-.09,.01-.19,.02-.3,.02-.27,0-.49-.08-.65-.24-.16-.16-.26-.36-.29-.59l-.03-.58c-.37,.49-.83,.87-1.39,1.12-.56,.26-1.16,.39-1.8,.39Zm.36-1.04c.49,0,.95-.09,1.37-.27,.42-.18,.75-.43,.97-.73,.2-.2,.3-.4,.3-.61v-1.21c-.67-.26-1.37-.39-2.09-.39s-1.25,.15-1.69,.44c-.43,.29-.65,.68-.65,1.15,0,.23,.04,.45,.13,.64s.21,.37,.38,.52c.16,.15,.35,.26,.57,.35,.22,.08,.46,.13,.71,.13Z"/><path class="cls-4" d="M26.47,114.48c-.69,.02-1.3,.2-1.83,.53-.53,.34-.9,.8-1.12,1.4v5.06h-1.38v-8.2h1.29v1.9c.28-.57,.65-1.02,1.12-1.37s.95-.55,1.48-.59h.27c.07,0,.14,0,.19,.02v1.26Z"/><path class="cls-4" d="M33.62,121.47l-2.83-4.01-1.57,1.48v2.53h-1.38v-11.47h1.38v7.54l4.21-4.26h1.52l-3.27,3.39,3.42,4.79h-1.49Z"/><path class="cls-4" d="M39.51,121.62c-.62,0-1.18-.11-1.7-.34s-.95-.53-1.32-.92c-.37-.39-.65-.84-.86-1.36-.2-.52-.31-1.07-.31-1.64s.1-1.12,.31-1.63c.2-.51,.49-.96,.86-1.35,.37-.39,.81-.69,1.33-.92s1.08-.34,1.7-.34,1.18,.12,1.69,.35c.51,.23,.94,.54,1.3,.92s.63,.83,.82,1.33c.19,.51,.29,1.03,.29,1.58,0,.12,0,.22,0,.31,0,.09-.01,.17-.02,.22h-6.8c.03,.41,.13,.78,.28,1.12,.16,.34,.36,.62,.61,.86,.25,.24,.54,.43,.86,.57s.66,.2,1.01,.2c.25,0,.5-.03,.74-.1,.24-.07,.47-.16,.68-.27,.21-.12,.4-.26,.56-.42,.16-.17,.29-.36,.37-.57l1.19,.33c-.14,.3-.32,.58-.56,.83-.24,.25-.51,.47-.82,.65-.31,.18-.65,.33-1.03,.43s-.77,.16-1.18,.16Zm2.81-4.81c-.03-.39-.13-.75-.29-1.08-.16-.33-.37-.61-.61-.84-.25-.23-.53-.41-.86-.54-.32-.13-.67-.2-1.04-.2s-.71,.07-1.04,.2c-.32,.13-.61,.31-.86,.55-.25,.24-.45,.52-.6,.84-.15,.32-.24,.68-.27,1.07h5.56Z"/><path class="cls-4" d="M49.32,121.06c-.08,.04-.19,.09-.33,.15-.14,.06-.29,.12-.46,.17-.17,.06-.36,.1-.57,.14-.2,.04-.42,.06-.64,.06-.5,0-.94-.14-1.3-.42-.37-.28-.55-.71-.55-1.3v-5.51h-1.12v-1.08h1.12v-2.73h1.38v2.73h1.84v1.08h-1.84v5.09c.02,.3,.12,.52,.3,.66,.18,.14,.39,.2,.63,.2,.27,0,.52-.04,.75-.13,.23-.09,.38-.16,.46-.21l.33,1.1Z"/><path class="cls-4" d="M50.61,111.73v-1.73h1.38v1.73h-1.38Zm0,9.74v-8.2h1.38v8.2h-1.38Z"/><path class="cls-4" d="M61.34,121.47h-1.38v-4.59c0-.88-.13-1.52-.4-1.92s-.67-.6-1.22-.6c-.28,0-.57,.05-.85,.16s-.55,.26-.8,.45c-.25,.19-.47,.41-.66,.68-.19,.26-.33,.55-.42,.86v4.95h-1.38v-8.2h1.26v1.76c.32-.58,.79-1.04,1.41-1.38,.61-.35,1.28-.52,2-.52,.47,0,.86,.09,1.18,.26,.31,.17,.57,.41,.75,.72,.19,.31,.32,.67,.4,1.09s.12,.87,.12,1.37v4.9Z"/><path class="cls-4" d="M66.76,121.56c-.56,0-1.07-.12-1.53-.35s-.87-.54-1.2-.93c-.34-.39-.59-.83-.78-1.34-.18-.5-.27-1.03-.27-1.57,0-.58,.09-1.12,.27-1.64s.44-.97,.78-1.36c.33-.39,.74-.69,1.2-.92s.98-.34,1.55-.34c.69,0,1.29,.17,1.79,.5,.5,.34,.93,.76,1.27,1.27v-1.63h1.23v8.11c0,.59-.11,1.1-.33,1.55-.22,.44-.52,.82-.9,1.12s-.82,.53-1.33,.69c-.51,.16-1.05,.24-1.63,.24-.93,0-1.69-.16-2.27-.48-.58-.32-1.07-.76-1.45-1.33l.8-.71c.32,.48,.74,.84,1.26,1.08,.51,.24,1.07,.36,1.67,.36,.38,0,.74-.05,1.08-.16s.64-.26,.89-.47c.25-.21,.45-.47,.6-.79,.15-.31,.23-.69,.23-1.12v-1.45c-.16,.25-.34,.48-.56,.68-.21,.2-.45,.38-.7,.52-.25,.14-.52,.25-.8,.32-.28,.07-.57,.11-.86,.11Zm.42-1.13c.29,0,.58-.05,.85-.16,.27-.1,.52-.24,.75-.42,.23-.17,.42-.37,.58-.59,.16-.22,.26-.45,.31-.68v-2.36c-.12-.28-.26-.54-.45-.77-.18-.23-.39-.43-.62-.6-.23-.17-.48-.31-.75-.4-.27-.09-.54-.14-.81-.14-.42,0-.79,.09-1.12,.27-.33,.18-.61,.41-.84,.71-.23,.29-.41,.63-.53,1-.13,.37-.19,.75-.19,1.12,0,.41,.07,.8,.22,1.16,.15,.37,.35,.69,.6,.96,.25,.27,.55,.49,.89,.65,.34,.16,.71,.24,1.11,.24Z"/><path class="cls-4" d="M77.49,121.47v-11.15h1.41v11.15h-1.41Z"/><path class="cls-4" d="M88.47,121.47h-1.38v-4.59c0-.88-.13-1.52-.4-1.92s-.67-.6-1.22-.6c-.28,0-.57,.05-.85,.16s-.55,.26-.8,.45c-.25,.19-.47,.41-.66,.68-.19,.26-.33,.55-.42,.86v4.95h-1.38v-8.2h1.26v1.76c.32-.58,.79-1.04,1.41-1.38,.61-.35,1.28-.52,2-.52,.47,0,.86,.09,1.18,.26,.31,.17,.57,.41,.75,.72,.19,.31,.32,.67,.4,1.09s.12,.87,.12,1.37v4.9Z"/><path class="cls-4" d="M94.78,121.06c-.08,.04-.19,.09-.33,.15-.14,.06-.29,.12-.46,.17-.17,.06-.36,.1-.57,.14-.2,.04-.42,.06-.64,.06-.5,0-.94-.14-1.3-.42-.37-.28-.55-.71-.55-1.3v-5.51h-1.12v-1.08h1.12v-2.73h1.38v2.73h1.84v1.08h-1.84v5.09c.02,.3,.12,.52,.3,.66,.18,.14,.39,.2,.63,.2,.27,0,.52-.04,.75-.13,.23-.09,.38-.16,.46-.21l.33,1.1Z"/><path class="cls-4" d="M99.59,121.62c-.62,0-1.18-.11-1.7-.34s-.95-.53-1.32-.92c-.37-.39-.65-.84-.86-1.36-.2-.52-.31-1.07-.31-1.64s.1-1.12,.31-1.63c.2-.51,.49-.96,.86-1.35,.37-.39,.81-.69,1.33-.92s1.08-.34,1.7-.34,1.18,.12,1.69,.35c.51,.23,.94,.54,1.3,.92s.63,.83,.82,1.33c.19,.51,.29,1.03,.29,1.58,0,.12,0,.22,0,.31,0,.09-.01,.17-.02,.22h-6.8c.03,.41,.13,.78,.28,1.12,.16,.34,.36,.62,.61,.86,.25,.24,.54,.43,.86,.57s.66,.2,1.01,.2c.25,0,.5-.03,.74-.1,.24-.07,.47-.16,.68-.27,.21-.12,.4-.26,.56-.42,.16-.17,.29-.36,.37-.57l1.19,.33c-.14,.3-.32,.58-.56,.83-.24,.25-.51,.47-.82,.65-.31,.18-.65,.33-1.03,.43s-.77,.16-1.18,.16Zm2.81-4.81c-.03-.39-.13-.75-.29-1.08-.16-.33-.37-.61-.61-.84-.25-.23-.53-.41-.86-.54-.32-.13-.67-.2-1.04-.2s-.71,.07-1.04,.2c-.32,.13-.61,.31-.86,.55-.25,.24-.45,.52-.6,.84-.15,.32-.24,.68-.27,1.07h5.56Z"/><path class="cls-4" d="M108.51,121.56c-.56,0-1.07-.12-1.53-.35s-.87-.54-1.2-.93c-.34-.39-.59-.83-.78-1.34-.18-.5-.27-1.03-.27-1.57,0-.58,.09-1.12,.27-1.64s.44-.97,.78-1.36c.33-.39,.74-.69,1.2-.92s.98-.34,1.55-.34c.69,0,1.29,.17,1.79,.5,.5,.34,.93,.76,1.27,1.27v-1.63h1.23v8.11c0,.59-.11,1.1-.33,1.55-.22,.44-.52,.82-.9,1.12s-.82,.53-1.33,.69c-.51,.16-1.05,.24-1.63,.24-.93,0-1.69-.16-2.27-.48-.58-.32-1.07-.76-1.45-1.33l.8-.71c.32,.48,.74,.84,1.26,1.08,.51,.24,1.07,.36,1.67,.36,.38,0,.74-.05,1.08-.16s.64-.26,.89-.47c.25-.21,.45-.47,.6-.79,.15-.31,.23-.69,.23-1.12v-1.45c-.16,.25-.34,.48-.56,.68-.21,.2-.45,.38-.7,.52-.25,.14-.52,.25-.8,.32-.28,.07-.57,.11-.86,.11Zm.42-1.13c.29,0,.58-.05,.85-.16,.27-.1,.52-.24,.75-.42,.23-.17,.42-.37,.58-.59,.16-.22,.26-.45,.31-.68v-2.36c-.12-.28-.26-.54-.45-.77-.18-.23-.39-.43-.62-.6-.23-.17-.48-.31-.75-.4-.27-.09-.54-.14-.81-.14-.42,0-.79,.09-1.12,.27-.33,.18-.61,.41-.84,.71-.23,.29-.41,.63-.53,1-.13,.37-.19,.75-.19,1.12,0,.41,.07,.8,.22,1.16,.15,.37,.35,.69,.6,.96,.25,.27,.55,.49,.89,.65,.34,.16,.71,.24,1.11,.24Z"/><path class="cls-4" d="M119.38,114.48c-.69,.02-1.3,.2-1.83,.53-.53,.34-.9,.8-1.12,1.4v5.06h-1.38v-8.2h1.29v1.9c.28-.57,.65-1.02,1.12-1.37,.46-.35,.95-.55,1.48-.59h.27c.07,0,.14,0,.19,.02v1.26Z"/><path class="cls-4" d="M122.85,121.62c-.39,0-.75-.07-1.08-.2-.34-.13-.63-.31-.87-.54-.25-.23-.44-.5-.58-.81-.14-.31-.21-.65-.21-1.01s.08-.72,.25-1.03c.17-.31,.41-.57,.71-.79,.31-.22,.68-.39,1.1-.52s.89-.19,1.39-.19c.4,0,.8,.04,1.21,.11,.41,.07,.77,.17,1.08,.3v-.66c0-.67-.19-1.2-.57-1.58s-.91-.57-1.6-.57c-.83,0-1.7,.32-2.61,.96l-.46-.9c1.06-.71,2.12-1.07,3.19-1.07s1.92,.29,2.52,.86c.6,.58,.9,1.39,.9,2.43v3.35c0,.32,.15,.49,.44,.5v1.19c-.15,.02-.27,.04-.36,.05-.09,.01-.19,.02-.3,.02-.27,0-.49-.08-.65-.24-.16-.16-.26-.36-.29-.59l-.03-.58c-.37,.49-.83,.87-1.39,1.12-.56,.26-1.16,.39-1.8,.39Zm.36-1.04c.49,0,.95-.09,1.37-.27,.42-.18,.75-.43,.97-.73,.2-.2,.3-.4,.3-.61v-1.21c-.67-.26-1.37-.39-2.09-.39s-1.25,.15-1.69,.44c-.43,.29-.65,.68-.65,1.15,0,.23,.04,.45,.13,.64,.09,.2,.21,.37,.38,.52,.16,.15,.35,.26,.57,.35,.22,.08,.46,.13,.71,.13Z"/><path class="cls-4" d="M129.48,110h1.38v9.35c0,.3,.08,.54,.24,.71,.16,.17,.39,.26,.68,.26,.12,0,.25-.02,.41-.05,.16-.04,.3-.08,.44-.13l.22,1.12c-.23,.09-.5,.17-.82,.24-.31,.06-.59,.09-.83,.09-.53,0-.96-.15-1.26-.46-.31-.3-.46-.73-.46-1.27v-9.85Z"/><path class="cls-4" d="M141.86,121.62c-.68,0-1.28-.17-1.8-.5s-.93-.76-1.23-1.27v4.96h-1.38v-11.55h1.23v1.54c.32-.5,.75-.91,1.26-1.22,.52-.31,1.09-.46,1.72-.46,.57,0,1.08,.12,1.56,.35,.47,.23,.88,.54,1.23,.93s.62,.85,.81,1.36c.19,.51,.29,1.05,.29,1.6,0,.59-.09,1.14-.27,1.66-.18,.52-.43,.97-.75,1.35-.32,.38-.71,.69-1.16,.91s-.95,.34-1.49,.34Zm-.42-1.19c.41,0,.78-.09,1.11-.26,.33-.17,.61-.4,.85-.69,.24-.29,.42-.62,.54-.98,.13-.37,.19-.74,.19-1.13,0-.41-.07-.8-.22-1.17-.15-.37-.35-.7-.6-.97-.25-.28-.55-.5-.89-.66-.34-.16-.71-.24-1.11-.24-.25,0-.51,.05-.78,.15-.27,.1-.52,.23-.75,.39-.24,.16-.44,.36-.61,.58-.17,.23-.29,.46-.34,.71v2.34c.12,.27,.26,.53,.44,.76,.18,.24,.38,.44,.61,.61,.23,.17,.48,.31,.74,.41,.26,.1,.53,.15,.82,.15Z"/><path class="cls-4" d="M149.34,121.62c-.39,0-.75-.07-1.08-.2-.34-.13-.63-.31-.87-.54-.25-.23-.44-.5-.58-.81-.14-.31-.21-.65-.21-1.01s.08-.72,.25-1.03c.17-.31,.41-.57,.71-.79,.31-.22,.68-.39,1.1-.52s.89-.19,1.39-.19c.4,0,.8,.04,1.21,.11,.41,.07,.77,.17,1.08,.3v-.66c0-.67-.19-1.2-.57-1.58s-.91-.57-1.6-.57c-.83,0-1.7,.32-2.61,.96l-.46-.9c1.06-.71,2.12-1.07,3.19-1.07s1.92,.29,2.52,.86c.6,.58,.9,1.39,.9,2.43v3.35c0,.32,.15,.49,.44,.5v1.19c-.15,.02-.27,.04-.36,.05-.09,.01-.19,.02-.3,.02-.27,0-.49-.08-.65-.24-.16-.16-.26-.36-.29-.59l-.03-.58c-.37,.49-.83,.87-1.39,1.12-.56,.26-1.16,.39-1.8,.39Zm.36-1.04c.49,0,.95-.09,1.37-.27,.42-.18,.75-.43,.97-.73,.2-.2,.3-.4,.3-.61v-1.21c-.67-.26-1.37-.39-2.09-.39s-1.25,.15-1.69,.44c-.43,.29-.65,.68-.65,1.15,0,.23,.04,.45,.13,.64,.09,.2,.21,.37,.38,.52,.16,.15,.35,.26,.57,.35,.22,.08,.46,.13,.71,.13Z"/><path class="cls-4" d="M160.27,114.48c-.69,.02-1.3,.2-1.83,.53-.53,.34-.9,.8-1.12,1.4v5.06h-1.38v-8.2h1.29v1.9c.28-.57,.65-1.02,1.12-1.37,.46-.35,.95-.55,1.48-.59h.27c.07,0,.14,0,.19,.02v1.26Z"/><path class="cls-4" d="M163.74,121.62c-.39,0-.75-.07-1.08-.2-.34-.13-.63-.31-.87-.54-.25-.23-.44-.5-.58-.81-.14-.31-.21-.65-.21-1.01s.08-.72,.25-1.03c.17-.31,.41-.57,.71-.79,.31-.22,.68-.39,1.1-.52s.89-.19,1.39-.19c.4,0,.8,.04,1.21,.11,.41,.07,.77,.17,1.08,.3v-.66c0-.67-.19-1.2-.57-1.58s-.91-.57-1.6-.57c-.83,0-1.7,.32-2.61,.96l-.46-.9c1.06-.71,2.12-1.07,3.19-1.07s1.92,.29,2.52,.86c.6,.58,.9,1.39,.9,2.43v3.35c0,.32,.15,.49,.44,.5v1.19c-.15,.02-.27,.04-.36,.05-.09,.01-.19,.02-.3,.02-.27,0-.49-.08-.65-.24-.16-.16-.26-.36-.29-.59l-.03-.58c-.37,.49-.83,.87-1.39,1.12-.56,.26-1.16,.39-1.8,.39Zm.36-1.04c.49,0,.95-.09,1.37-.27,.42-.18,.75-.43,.97-.73,.2-.2,.3-.4,.3-.61v-1.21c-.67-.26-1.37-.39-2.09-.39s-1.25,.15-1.69,.44c-.43,.29-.65,.68-.65,1.15,0,.23,.04,.45,.13,.64,.09,.2,.21,.37,.38,.52,.16,.15,.35,.26,.57,.35,.22,.08,.46,.13,.71,.13Z"/><path class="cls-4" d="M173.81,115.81c0-.67,.12-1.34,.35-2s.58-1.26,1.04-1.79c.46-.53,1.01-.96,1.67-1.28,.66-.32,1.41-.49,2.25-.49,.99,0,1.85,.23,2.56,.68,.71,.45,1.24,1.04,1.59,1.76l-1.12,.72c-.17-.36-.37-.65-.6-.9-.24-.24-.49-.43-.77-.58-.28-.15-.56-.25-.86-.31-.29-.06-.58-.09-.86-.09-.62,0-1.17,.13-1.64,.39-.48,.26-.88,.59-1.2,1.01-.32,.41-.57,.88-.73,1.4-.16,.52-.24,1.04-.24,1.56,0,.59,.1,1.14,.29,1.67,.19,.53,.46,1,.81,1.41s.75,.73,1.23,.97,.98,.36,1.54,.36c.29,0,.59-.04,.9-.11,.31-.07,.6-.19,.89-.35,.28-.16,.55-.37,.79-.61s.45-.54,.6-.89l1.18,.64c-.18,.42-.43,.79-.75,1.11s-.68,.59-1.08,.81c-.4,.22-.83,.39-1.28,.5-.45,.12-.89,.17-1.32,.17-.76,0-1.47-.17-2.11-.5-.64-.34-1.19-.77-1.66-1.31-.47-.54-.83-1.15-1.08-1.84-.26-.69-.39-1.38-.39-2.1Z"/><path class="cls-4" d="M188.61,121.62c-.62,0-1.18-.12-1.69-.35-.51-.23-.94-.54-1.3-.93s-.64-.84-.84-1.35c-.2-.51-.3-1.05-.3-1.62s.1-1.12,.31-1.63c.2-.51,.49-.96,.85-1.35,.36-.39,.8-.7,1.3-.93,.51-.23,1.07-.35,1.67-.35s1.17,.12,1.68,.35c.51,.23,.95,.54,1.31,.93,.36,.39,.64,.84,.85,1.35,.2,.51,.31,1.06,.31,1.63s-.1,1.11-.3,1.62c-.2,.51-.48,.96-.85,1.35s-.8,.7-1.31,.93c-.51,.23-1.07,.35-1.69,.35Zm-2.72-4.23c0,.43,.07,.83,.21,1.19,.14,.37,.34,.69,.58,.96,.25,.27,.53,.49,.86,.64,.33,.16,.68,.24,1.06,.24s.73-.08,1.06-.24c.33-.16,.62-.37,.87-.65,.25-.28,.45-.6,.59-.97s.21-.77,.21-1.2-.07-.81-.21-1.19c-.14-.37-.34-.7-.59-.97-.25-.28-.54-.49-.87-.65-.33-.16-.68-.24-1.06-.24s-.73,.08-1.06,.24c-.33,.16-.62,.38-.86,.66-.25,.28-.44,.6-.58,.97-.14,.37-.21,.77-.21,1.2Z"/><path class="cls-4" d="M206.8,121.47h-1.38v-4.59c0-.86-.14-1.49-.42-1.9-.28-.41-.69-.61-1.23-.61s-1.07,.2-1.52,.6c-.45,.4-.76,.92-.95,1.56v4.93h-1.38v-4.59c0-.88-.14-1.52-.41-1.92s-.68-.6-1.23-.6-1.06,.2-1.51,.59-.77,.91-.96,1.56v4.95h-1.38v-8.2h1.26v1.76c.34-.61,.77-1.08,1.3-1.41,.53-.33,1.14-.49,1.81-.49s1.24,.19,1.64,.56c.4,.37,.65,.85,.75,1.44,.73-1.33,1.77-1.99,3.13-1.99,.47,0,.87,.09,1.19,.26,.32,.17,.57,.41,.76,.72,.19,.31,.32,.67,.41,1.09,.08,.42,.13,.87,.13,1.37v4.9Z"/><path class="cls-4" d="M212.58,121.62c-.62,0-1.18-.11-1.7-.34s-.95-.53-1.32-.92c-.37-.39-.65-.84-.86-1.36-.2-.52-.31-1.07-.31-1.64s.1-1.12,.31-1.63c.2-.51,.49-.96,.86-1.35,.37-.39,.81-.69,1.33-.92s1.08-.34,1.7-.34,1.18,.12,1.69,.35c.51,.23,.94,.54,1.3,.92s.63,.83,.82,1.33c.19,.51,.29,1.03,.29,1.58,0,.12,0,.22,0,.31,0,.09-.01,.17-.02,.22h-6.8c.03,.41,.13,.78,.28,1.12,.16,.34,.36,.62,.61,.86,.25,.24,.54,.43,.86,.57s.66,.2,1.01,.2c.25,0,.5-.03,.74-.1,.24-.07,.47-.16,.68-.27,.21-.12,.4-.26,.56-.42,.16-.17,.29-.36,.37-.57l1.19,.33c-.14,.3-.32,.58-.56,.83-.24,.25-.51,.47-.82,.65-.31,.18-.65,.33-1.03,.43s-.77,.16-1.18,.16Zm2.81-4.81c-.03-.39-.13-.75-.29-1.08-.16-.33-.37-.61-.61-.84-.25-.23-.53-.41-.86-.54-.32-.13-.67-.2-1.04-.2s-.71,.07-1.04,.2c-.32,.13-.61,.31-.86,.55-.25,.24-.45,.52-.6,.84-.15,.32-.24,.68-.27,1.07h5.56Z"/><path class="cls-4" d="M222.57,114.48c-.69,.02-1.3,.2-1.83,.53-.53,.34-.9,.8-1.12,1.4v5.06h-1.38v-8.2h1.29v1.9c.28-.57,.65-1.02,1.12-1.37,.46-.35,.95-.55,1.48-.59h.27c.07,0,.14,0,.19,.02v1.26Z"/><path class="cls-4" d="M223.19,117.35c0-.58,.1-1.12,.3-1.63,.2-.51,.48-.96,.85-1.34,.37-.38,.8-.69,1.31-.91,.51-.23,1.08-.34,1.7-.34,.82,0,1.52,.18,2.11,.54,.59,.36,1.04,.85,1.34,1.45l-1.35,.42c-.21-.39-.5-.69-.88-.9-.38-.21-.8-.32-1.26-.32-.38,0-.73,.08-1.07,.23-.34,.15-.62,.36-.86,.64-.24,.27-.43,.59-.57,.96s-.21,.77-.21,1.21,.07,.83,.22,1.21,.34,.7,.59,.98c.25,.28,.53,.5,.86,.65,.33,.16,.68,.24,1.06,.24,.24,0,.48-.03,.71-.1,.24-.07,.45-.16,.64-.27,.19-.12,.36-.25,.51-.4,.15-.15,.25-.32,.31-.49l1.35,.41c-.13,.3-.3,.58-.53,.83-.23,.25-.49,.47-.79,.64-.3,.18-.64,.32-1.01,.42s-.76,.16-1.17,.16c-.62,0-1.18-.12-1.7-.35-.51-.23-.95-.54-1.32-.93-.37-.39-.65-.84-.86-1.36-.2-.52-.31-1.07-.31-1.64Z"/><path class="cls-4" d="M232.45,111.73v-1.73h1.38v1.73h-1.38Zm0,9.74v-8.2h1.38v8.2h-1.38Z"/><path class="cls-4" d="M239.64,121.62c-.62,0-1.18-.12-1.69-.35-.51-.23-.94-.54-1.3-.93s-.64-.84-.84-1.35c-.2-.51-.3-1.05-.3-1.62s.1-1.12,.31-1.63c.2-.51,.49-.96,.85-1.35,.36-.39,.8-.7,1.3-.93,.51-.23,1.07-.35,1.67-.35s1.17,.12,1.68,.35c.51,.23,.95,.54,1.31,.93,.36,.39,.64,.84,.85,1.35,.2,.51,.31,1.06,.31,1.63s-.1,1.11-.3,1.62c-.2,.51-.48,.96-.85,1.35s-.8,.7-1.31,.93c-.51,.23-1.07,.35-1.69,.35Zm-2.72-4.23c0,.43,.07,.83,.21,1.19,.14,.37,.34,.69,.58,.96,.25,.27,.53,.49,.86,.64,.33,.16,.68,.24,1.06,.24s.73-.08,1.06-.24c.33-.16,.62-.37,.87-.65,.25-.28,.45-.6,.59-.97s.21-.77,.21-1.2-.07-.81-.21-1.19c-.14-.37-.34-.7-.59-.97-.25-.28-.54-.49-.87-.65-.33-.16-.68-.24-1.06-.24s-.73,.08-1.06,.24c-.33,.16-.62,.38-.86,.66-.25,.28-.44,.6-.58,.97-.14,.37-.21,.77-.21,1.2Z"/><path class="cls-4" d="M248.34,121.62c-.66,0-1.31-.1-1.95-.31-.64-.2-1.19-.5-1.65-.89l.6-.93c.48,.37,.96,.64,1.45,.82,.48,.18,.99,.27,1.52,.27,.6,0,1.07-.12,1.42-.35,.35-.24,.53-.57,.53-1,0-.2-.05-.37-.14-.51-.09-.14-.24-.26-.42-.37-.19-.1-.43-.2-.72-.28-.29-.08-.63-.17-1.02-.27-.49-.13-.92-.25-1.27-.36-.36-.12-.65-.25-.88-.41-.23-.16-.4-.35-.5-.57-.11-.22-.16-.49-.16-.82,0-.41,.08-.77,.24-1.09,.16-.32,.38-.59,.67-.8,.28-.21,.62-.38,1-.49,.38-.11,.79-.16,1.23-.16,.62,0,1.19,.1,1.73,.3,.53,.2,.98,.46,1.35,.79l-.63,.83c-.35-.3-.73-.53-1.16-.68-.43-.15-.87-.23-1.32-.23-.5,0-.93,.11-1.28,.32-.35,.21-.53,.56-.53,1.03,0,.19,.03,.35,.1,.47,.07,.13,.18,.24,.34,.33,.16,.09,.36,.18,.6,.25,.25,.07,.54,.15,.89,.24,.54,.13,1.02,.25,1.42,.38,.4,.13,.74,.29,1.01,.46s.47,.39,.6,.63c.13,.24,.2,.53,.2,.88,0,.76-.29,1.37-.88,1.82-.59,.45-1.38,.68-2.37,.68Z"/><path class="cls-4" d="M257.15,123.7c.14,.02,.27,.04,.41,.05s.24,.02,.31,.02c.13,0,.24-.03,.34-.09,.1-.06,.2-.17,.3-.34,.1-.17,.21-.4,.34-.7,.13-.3,.28-.69,.47-1.17l-3.47-8.2h1.43l2.8,6.96,2.54-6.96h1.32l-3.99,10.35c-.15,.37-.39,.69-.73,.97-.34,.28-.81,.42-1.41,.42-.09,0-.19,0-.29-.02-.1-.01-.22-.03-.37-.06v-1.23Z"/><path class="cls-4" d="M276.68,120.21v1.26h-7.57v-11.15h7.43v1.26h-6.02v3.61h5.23v1.18h-5.23v3.85h6.16Z"/><path class="cls-4" d="M290.68,121.47h-1.38v-4.59c0-.86-.14-1.49-.42-1.9-.28-.41-.69-.61-1.23-.61s-1.07,.2-1.52,.6c-.45,.4-.76,.92-.95,1.56v4.93h-1.38v-4.59c0-.88-.14-1.52-.41-1.92s-.68-.6-1.23-.6-1.06,.2-1.51,.59-.77,.91-.96,1.56v4.95h-1.38v-8.2h1.26v1.76c.34-.61,.77-1.08,1.3-1.41,.53-.33,1.14-.49,1.81-.49s1.24,.19,1.64,.56c.4,.37,.65,.85,.75,1.44,.73-1.33,1.77-1.99,3.13-1.99,.47,0,.87,.09,1.19,.26,.32,.17,.57,.41,.76,.72,.19,.31,.32,.67,.41,1.09,.08,.42,.13,.87,.13,1.37v4.9Z"/><path class="cls-4" d="M297.24,121.62c-.68,0-1.28-.17-1.8-.5s-.93-.76-1.23-1.27v4.96h-1.38v-11.55h1.23v1.54c.32-.5,.75-.91,1.26-1.22,.52-.31,1.09-.46,1.72-.46,.57,0,1.08,.12,1.56,.35,.47,.23,.88,.54,1.23,.93s.62,.85,.81,1.36c.19,.51,.29,1.05,.29,1.6,0,.59-.09,1.14-.27,1.66-.18,.52-.43,.97-.75,1.35-.32,.38-.71,.69-1.16,.91s-.95,.34-1.49,.34Zm-.42-1.19c.41,0,.78-.09,1.11-.26,.33-.17,.61-.4,.85-.69,.24-.29,.42-.62,.54-.98,.13-.37,.19-.74,.19-1.13,0-.41-.07-.8-.22-1.17-.15-.37-.35-.7-.6-.97-.25-.28-.55-.5-.89-.66-.34-.16-.71-.24-1.11-.24-.25,0-.51,.05-.78,.15-.27,.1-.52,.23-.75,.39-.24,.16-.44,.36-.61,.58-.17,.23-.29,.46-.34,.71v2.34c.12,.27,.26,.53,.44,.76,.18,.24,.38,.44,.61,.61,.23,.17,.48,.31,.74,.41,.26,.1,.53,.15,.82,.15Z"/><path class="cls-4" d="M306.95,114.48c-.69,.02-1.3,.2-1.83,.53-.53,.34-.9,.8-1.12,1.4v5.06h-1.38v-8.2h1.29v1.9c.28-.57,.65-1.02,1.12-1.37,.46-.35,.95-.55,1.48-.59h.27c.07,0,.14,0,.19,.02v1.26Z"/><path class="cls-4" d="M311.76,121.62c-.62,0-1.18-.11-1.7-.34s-.95-.53-1.32-.92c-.37-.39-.65-.84-.86-1.36-.2-.52-.31-1.07-.31-1.64s.1-1.12,.31-1.63c.2-.51,.49-.96,.86-1.35,.37-.39,.81-.69,1.33-.92s1.08-.34,1.7-.34,1.18,.12,1.69,.35c.51,.23,.94,.54,1.3,.92s.63,.83,.82,1.33c.19,.51,.29,1.03,.29,1.58,0,.12,0,.22,0,.31,0,.09-.01,.17-.02,.22h-6.8c.03,.41,.13,.78,.28,1.12,.16,.34,.36,.62,.61,.86,.25,.24,.54,.43,.86,.57s.66,.2,1.01,.2c.25,0,.5-.03,.74-.1,.24-.07,.47-.16,.68-.27,.21-.12,.4-.26,.56-.42,.16-.17,.29-.36,.37-.57l1.19,.33c-.14,.3-.32,.58-.56,.83-.24,.25-.51,.47-.82,.65-.31,.18-.65,.33-1.03,.43s-.77,.16-1.18,.16Zm2.81-4.81c-.03-.39-.13-.75-.29-1.08-.16-.33-.37-.61-.61-.84-.25-.23-.53-.41-.86-.54-.32-.13-.67-.2-1.04-.2s-.71,.07-1.04,.2c-.32,.13-.61,.31-.86,.55-.25,.24-.45,.52-.6,.84-.15,.32-.24,.68-.27,1.07h5.56Z"/><path class="cls-4" d="M320.29,121.62c-.66,0-1.31-.1-1.95-.31-.64-.2-1.19-.5-1.65-.89l.6-.93c.48,.37,.96,.64,1.45,.82,.48,.18,.99,.27,1.52,.27,.6,0,1.07-.12,1.42-.35,.35-.24,.53-.57,.53-1,0-.2-.05-.37-.14-.51-.09-.14-.24-.26-.42-.37-.19-.1-.43-.2-.72-.28-.29-.08-.63-.17-1.02-.27-.49-.13-.92-.25-1.27-.36-.36-.12-.65-.25-.88-.41-.23-.16-.4-.35-.5-.57-.11-.22-.16-.49-.16-.82,0-.41,.08-.77,.24-1.09,.16-.32,.38-.59,.67-.8,.28-.21,.62-.38,1-.49,.38-.11,.79-.16,1.23-.16,.62,0,1.19,.1,1.73,.3,.53,.2,.98,.46,1.35,.79l-.63,.83c-.35-.3-.73-.53-1.16-.68-.43-.15-.87-.23-1.32-.23-.5,0-.93,.11-1.28,.32-.35,.21-.53,.56-.53,1.03,0,.19,.03,.35,.1,.47,.07,.13,.18,.24,.34,.33,.16,.09,.36,.18,.6,.25,.25,.07,.54,.15,.89,.24,.54,.13,1.02,.25,1.42,.38,.4,.13,.74,.29,1.01,.46s.47,.39,.6,.63c.13,.24,.2,.53,.2,.88,0,.76-.29,1.37-.88,1.82-.59,.45-1.38,.68-2.37,.68Z"/><path class="cls-4" d="M327.28,121.62c-.39,0-.75-.07-1.08-.2-.34-.13-.63-.31-.87-.54-.25-.23-.44-.5-.58-.81-.14-.31-.21-.65-.21-1.01s.08-.72,.25-1.03c.17-.31,.41-.57,.71-.79,.31-.22,.68-.39,1.1-.52s.89-.19,1.39-.19c.4,0,.8,.04,1.21,.11,.41,.07,.77,.17,1.08,.3v-.66c0-.67-.19-1.2-.57-1.58s-.91-.57-1.6-.57c-.83,0-1.7,.32-2.61,.96l-.46-.9c1.06-.71,2.12-1.07,3.19-1.07s1.92,.29,2.52,.86c.6,.58,.9,1.39,.9,2.43v3.35c0,.32,.15,.49,.44,.5v1.19c-.15,.02-.27,.04-.36,.05-.09,.01-.19,.02-.3,.02-.27,0-.49-.08-.65-.24-.16-.16-.26-.36-.29-.59l-.03-.58c-.37,.49-.83,.87-1.39,1.12-.56,.26-1.16,.39-1.8,.39Zm.36-1.04c.49,0,.95-.09,1.37-.27,.42-.18,.75-.43,.97-.73,.2-.2,.3-.4,.3-.61v-1.21c-.67-.26-1.37-.39-2.09-.39s-1.25,.15-1.69,.44c-.43,.29-.65,.68-.65,1.15,0,.23,.04,.45,.13,.64,.09,.2,.21,.37,.38,.52,.16,.15,.35,.26,.57,.35,.22,.08,.46,.13,.71,.13Z"/><path class="cls-4" d="M336.75,121.62c-.66,0-1.31-.1-1.95-.31-.64-.2-1.19-.5-1.65-.89l.6-.93c.48,.37,.96,.64,1.45,.82,.48,.18,.99,.27,1.52,.27,.6,0,1.07-.12,1.42-.35,.35-.24,.53-.57,.53-1,0-.2-.05-.37-.14-.51-.09-.14-.24-.26-.42-.37-.19-.1-.43-.2-.72-.28-.29-.08-.63-.17-1.02-.27-.49-.13-.92-.25-1.27-.36-.36-.12-.65-.25-.88-.41-.23-.16-.4-.35-.5-.57-.11-.22-.16-.49-.16-.82,0-.41,.08-.77,.24-1.09,.16-.32,.38-.59,.67-.8,.28-.21,.62-.38,1-.49,.38-.11,.79-.16,1.23-.16,.62,0,1.19,.1,1.73,.3,.53,.2,.98,.46,1.35,.79l-.63,.83c-.35-.3-.73-.53-1.16-.68-.43-.15-.87-.23-1.32-.23-.5,0-.93,.11-1.28,.32-.35,.21-.53,.56-.53,1.03,0,.19,.03,.35,.1,.47,.07,.13,.18,.24,.34,.33,.16,.09,.36,.18,.6,.25,.25,.07,.54,.15,.89,.24,.54,.13,1.02,.25,1.42,.38,.4,.13,.74,.29,1.01,.46s.47,.39,.6,.63c.13,.24,.2,.53,.2,.88,0,.76-.29,1.37-.88,1.82-.59,.45-1.38,.68-2.37,.68Z"/></g><g><g id="NOMBRE"><path class="cls-3" d="M71,16.82v55.39h-5.06v-6.88c-2.15,2.62-4.57,4.59-7.26,5.91-2.68,1.32-5.61,1.98-8.79,1.98-5.66,0-10.49-2.05-14.49-6.15-4-4.1-6.01-9.09-6.01-14.97s2.02-10.68,6.06-14.77c4.04-4.09,8.9-6.13,14.58-6.13,3.28,0,6.25,.7,8.91,2.09,2.66,1.4,4.99,3.49,7,6.28V16.82h5.06Zm-20.54,19.36c-2.87,0-5.51,.7-7.93,2.11-2.42,1.41-4.34,3.39-5.78,5.93-1.43,2.54-2.14,5.23-2.14,8.07s.72,5.5,2.16,8.07c1.44,2.57,3.38,4.57,5.82,6,2.43,1.44,5.04,2.15,7.83,2.15s5.48-.71,7.99-2.13c2.53-1.42,4.46-3.34,5.82-5.75,1.36-2.43,2.04-5.16,2.04-8.18,0-4.63-1.52-8.49-4.57-11.59-3.05-3.11-6.8-4.66-11.24-4.66Z"/><g><path class="cls-3" d="M136.97,32.24h5.14v6.91c1.79-2.54,3.63-4.41,5.52-5.58,2.6-1.56,5.33-2.35,8.2-2.35,1.93,0,3.77,.38,5.51,1.14,1.74,.76,3.16,1.77,4.27,3.03,1.1,1.26,2.06,3.06,2.87,5.42,1.71-3.13,3.84-5.51,6.42-7.14,2.56-1.63,5.32-2.44,8.28-2.44,2.77,0,5.2,.7,7.32,2.09,2.11,1.4,3.68,3.35,4.7,5.84,1.03,2.5,1.54,6.25,1.54,11.24v21.82h-5.26v-21.82c0-4.28-.29-7.23-.91-8.83-.62-1.6-1.65-2.9-3.13-3.87-1.48-.98-3.24-1.47-5.3-1.47-2.49,0-4.77,.74-6.83,2.2-2.06,1.47-3.57,3.43-4.52,5.88-.95,2.45-1.42,6.53-1.42,12.26v15.65h-5.14v-20.46c0-4.83-.3-8.1-.9-9.83-.6-1.72-1.65-3.11-3.14-4.15-1.5-1.04-3.27-1.57-5.33-1.57-2.37,0-4.59,.72-6.66,2.15-2.07,1.44-3.6,3.36-4.59,5.79-.99,2.43-1.49,6.13-1.49,11.14v16.93h-5.14V32.24Z"/><path class="cls-3" d="M206.8,32.24h5.14v39.97h-5.14V32.24Z"/><path class="cls-3" d="M261.42,40.55l-4.08,2.53c-3.52-4.68-8.32-7.02-14.42-7.02-4.87,0-8.91,1.57-12.13,4.7-3.22,3.13-4.82,6.94-4.82,11.41,0,2.91,.74,5.66,2.22,8.22,1.48,2.57,3.51,4.56,6.09,5.97,2.58,1.42,5.47,2.13,8.68,2.13,5.87,0,10.66-2.34,14.38-7.02l4.08,2.69c-1.91,2.87-4.48,5.1-7.7,6.69-3.22,1.58-6.89,2.38-11,2.38-6.31,0-11.55-2.01-15.72-6.02-4.17-4.02-6.25-8.9-6.25-14.66,0-3.87,.98-7.46,2.92-10.78,1.95-3.32,4.62-5.91,8.03-7.77,3.41-1.86,7.21-2.79,11.42-2.79,2.65,0,5.2,.4,7.65,1.21,2.48,.81,4.55,1.86,6.26,3.16,1.72,1.3,3.18,2.95,4.38,4.96Z"/><path class="cls-3" d="M304.95,58.94l4.33,2.28c-1.42,2.79-3.06,5.05-4.92,6.76-1.86,1.72-3.97,3.02-6.3,3.91-2.32,.9-4.96,1.34-7.9,1.34-6.52,0-11.62-2.14-15.29-6.41-3.68-4.27-5.52-9.1-5.52-14.49,0-5.07,1.56-9.59,4.67-13.55,3.95-5.05,9.23-7.56,15.84-7.56s12.26,2.59,16.32,7.75c2.89,3.65,4.36,8.2,4.41,13.66h-35.96c.09,4.64,1.58,8.44,4.44,11.41,2.87,2.97,6.41,4.45,10.63,4.45,2.03,0,4.01-.35,5.94-1.06,1.92-.71,3.56-1.65,4.91-2.82,1.35-1.17,2.81-3.06,4.38-5.68Zm0-10.76c-.69-2.74-1.69-4.93-3-6.58-1.31-1.64-3.04-2.96-5.2-3.97-2.16-1.01-4.43-1.51-6.8-1.51-3.93,0-7.3,1.27-10.12,3.79-2.06,1.83-3.61,4.59-4.66,8.26h29.79Z"/></g></g><g><g id="MOUSE"><path class="cls-1" d="M123.46,24.37h0c.27,.15,.54,.29,.78,.44-.26-.16-.52-.31-.78-.44Z"/><path class="cls-1" d="M125.46,25.77c-.38-.38-.79-.7-1.22-.96-.24-.15-.51-.29-.78-.44,.4,.42,.73,.82,1,1.23,.09,.14,.17,.27,.24,.41,.46,.83,.66,1.7,.69,2.65,.04,1.59-.89,5.16-2.06,7.39-.41,.77-1.33,2.37-2.74,4.12-2.68,3.31-5.92,5.6-7.71,9.87-1.81,4.51-3.38,13.36-4.5,15.4-1.11,2.04-2.78,3.53-4.79,4.93-2.02,1.39-5.79,3.32-9.2,3.32-4.06,0-5.17-1.79-5.17-1.79-.28,.84,.8,1.81,1.82,2.16,.9,.31,1.56,.55,3.33,.55s5.97-.7,9.74-3.19c3.78-2.48,7.6-6.98,9.65-10.84,2.06-3.85,2.6-6.15,4.79-10.45,2.19-4.3,4.66-7.11,6.77-12.27,2.84-6.95,1.91-10.29,.14-12.09Z"/><path class="cls-1" d="M90.12,64.71c-3.43-.23-5.62-5.99-5.64-12.76,0-8.1,1.93-12.72,2.9-14.02,.19-.24,.15-.48-.12-.39-.1,.03-.23,.11-.39,.23-.4,.4-.78,.85-1.13,1.35-.04,.06-.09,.12-.13,.19-.33,.48-.64,.94-.9,1.36-.87,1.47-1.55,3.43-2,5.67-.1,.49-.19,.98-.26,1.46-.29,1.86-.43,3.85-.43,5.89,0,4.04,.57,8.26,1.82,11.84,.12,.37,.25,.73,.39,1.04,.1,.25,.21,.48,.32,.68,.58,1.1,.89,1.56,1.08,1.65,.58,.26,.3-2.45,2.85-2.36,2.97,.1,2.42-1.77,1.63-1.85Z"/><path class="cls-2" d="M94.8,29.86c.19-.21,.93-.72,1.68-1.19,.67-.42,1.05-.65,1.63-.93,1.65-.66,2.31-.67,0,.62-.96,.56-2.64,1.64-3.34,2.12-.73,.58-.32-.23,.03-.62Z"/><path class="cls-1" d="M119.34,23.28c-.1-.09-.21-.18-.33-.27-.38-.28-.81-.54-1.31-.79-.61-.11-1.26-.19-1.92-.22-.19,0-.38-.01-.57-.01-4.07,0-7.98,1.24-9.12,1.65,0,0-2.62,1.4-.24,.54,2.38-.86,5.7-1.38,6.82-1.46,.59-.04,1.19-.11,2.02-.11-.44,.26-.87,.36-1.01,1.2-.03,.29,.05,.3,.27,.08,0,0,.61-.84,2.53-1.19,.35,.03,.72,.07,1.13,.13,.53,.07,1.13,.24,1.74,.43Z"/><path class="cls-1" d="M121.85,34.11c-.88-.68-1.91-1.36-3.1-1.71-1.15-.31-3.96-.75-7-1.05-3.44-.34-5.45-.53-6.95-.55,.69-1.4,1.59-2.09,2.24-2.32,.14-.04,.4-.18,.24-.24-.17-.06-.92,.03-1.22,.13-.79,.22-1.61,1.02-2.21,2.38-1.84-.01-6.3-.15-7.24,.19-.17,.05-1.01,.51-.18,.41,.83-.1,1.05-.1,1.76-.08,.87,0,4.29,.11,6.42,.21,2.13,.1,5.53,.5,7.38,.71,3.51,.4,5.27,.69,6.26,.96,1.7,.53,2.99,1.33,3.65,2.42,.5,.78,.42-1.01-.06-1.47Z"/><path class="cls-2" d="M112.55,24.36c-2.07-2.43-4.87,1.56-4.77,3.14,0,.05,.28,.2,.35,.18,1.58-.27,3.91-1.77,4.87-2.79,.23-.25,.2-.39,.04-.64-.16-.23-.42-.1-.49,.11Z"/></g><g id="BOLITAS"><path class="cls-1" d="M146.85,5.35c0,1.37-1.12,2.5-2.51,2.5s-2.5-1.13-2.5-2.5,1.12-2.5,2.5-2.5,2.51,1.12,2.51,2.5Z"/><path class="cls-1" d="M162.34,1.75c0,.96-.78,1.74-1.75,1.74s-1.74-.78-1.74-1.74,.78-1.75,1.74-1.75,1.75,.78,1.75,1.75Z"/><path class="cls-1" d="M196.3,10.41c0,1.76-1.42,3.19-3.2,3.19s-3.18-1.43-3.18-3.19,1.43-3.19,3.18-3.19,3.2,1.43,3.2,3.19Z"/><path class="cls-1" d="M131.11,13.56c0,1.67-1.35,3.02-3.03,3.02s-3.01-1.35-3.01-3.02,1.35-3.01,3.01-3.01,3.03,1.35,3.03,3.01Z"/><path class="cls-1" d="M179.03,3.39c0,1.2-.98,2.18-2.18,2.18s-2.17-.98-2.17-2.18,.97-2.18,2.17-2.18,2.18,.98,2.18,2.18Z"/><path class="cls-1" d="M213.59,20.06c0,2.33-1.89,4.22-4.24,4.22s-4.21-1.89-4.21-4.22,1.89-4.22,4.21-4.22,4.24,1.9,4.24,4.22Z"/><g><path class="cls-1" d="M268,78.79c.29-1.34-.58-2.68-1.93-2.97-1.35-.29-2.68,.58-2.96,1.93-.28,1.34,.57,2.67,1.91,2.97,1.36,.28,2.69-.58,2.98-1.93Z"/><path class="cls-1" d="M280.38,85.32c.2-.94-.4-1.86-1.35-2.06-.94-.21-1.87,.4-2.06,1.34-.2,.93,.4,1.87,1.33,2.07,.95,.2,1.88-.41,2.08-1.35Z"/><path class="cls-1" d="M310.55,83.37c.37-1.72-.73-3.42-2.46-3.78-1.72-.37-3.42,.74-3.78,2.45-.37,1.72,.73,3.42,2.45,3.78,1.73,.37,3.43-.73,3.79-2.45Z"/><path class="cls-1" d="M294.16,86.86c.26-1.17-.49-2.33-1.68-2.58-1.17-.26-2.33,.5-2.58,1.67-.25,1.18,.5,2.34,1.68,2.58,1.18,.25,2.33-.5,2.58-1.68Z"/></g></g></g></g></g></g></svg>