<?xml version="1.0" encoding="UTF-8"?><svg id="Layer_2" xmlns="http://www.w3.org/2000/svg" viewBox="0 0 340 140"><defs><style>.cls-1,.cls-2{fill:#0079bd;}.cls-3,.cls-4{fill:#fff;}.cls-5{fill:#231f20;}.cls-6,.cls-4{stroke:#231f20;stroke-width:1.3px;}.cls-6,.cls-7{fill:none;}.cls-2{stroke:#000;stroke-width:.15px;}.cls-7{stroke:#0079bd;stroke-width:3.67px;}</style></defs><g id="Layer_1-2"><g><polygon class="cls-1" points="114.95 109.58 114.95 102.39 340 102.39 340 109.58 114.95 109.58 114.95 109.58"/><g><path class="cls-1" d="M115.43,6.61h24.51v6.48h-15.53v6.78h14.33v6.48h-14.33v6.97h15.53v6.48h-24.51V6.61Z"/><path class="cls-1" d="M144.05,29.24h8.93c0,1.19,.36,2.24,1.08,3.15,.72,.92,1.96,1.44,3.73,1.57,1.58,0,2.84-.31,3.78-.93,.95-.62,1.42-1.41,1.42-2.38,0-.75-.21-1.38-.64-1.89-.43-.5-.97-.9-1.6-1.19-.64-.29-1.33-.54-2.08-.75-.75-.21-1.46-.4-2.12-.57-2.6-.61-4.69-1.22-6.27-1.83-1.57-.61-2.9-1.55-3.98-2.83-1.08-1.28-1.65-3.02-1.71-5.2,0-2.4,.59-4.38,1.78-5.93,1.18-1.56,2.82-2.7,4.9-3.43,2.08-.73,4.45-1.1,7.11-1.1,4.33,.05,7.56,.91,9.7,2.58,2.14,1.67,3.2,3.99,3.2,6.96,0,.4-.01,.7-.04,.92h-8.86c0-1.24-.38-2.22-1.15-2.95-.76-.73-1.83-1.09-3.21-1.09-1.15,0-2.11,.32-2.88,.96-.77,.64-1.16,1.37-1.16,2.2,0,1.69,1.77,2.94,5.29,3.77,2.42,.56,4.24,1.01,5.46,1.35,1.22,.34,2.41,.85,3.57,1.52,1.16,.67,2.12,1.62,2.86,2.83,.74,1.21,1.15,2.78,1.23,4.68,0,2.4-.64,4.43-1.91,6.06-1.27,1.63-2.98,2.85-5.13,3.64-2.14,.79-4.53,1.19-7.14,1.19-3.15,0-5.76-.41-7.84-1.23-2.08-.82-3.63-2.07-4.67-3.74-1.04-1.67-1.58-3.78-1.65-6.32Z"/><path class="cls-1" d="M197.68,17.01c-.04-1.43-.58-2.56-1.59-3.41-1.02-.85-2.31-1.27-3.88-1.27-1.68,0-2.99,.45-3.95,1.36-.96,.91-1.62,2.17-2,3.79-.37,1.63-.56,3.63-.56,6,0,6.97,2.01,10.49,6.01,10.56,.2-.06,.48-.09,.84-.09,1.81-.18,3.1-.65,3.86-1.42,.76-.77,1.21-1.87,1.36-3.31h9.29c0,2.06-.46,3.9-1.37,5.53-.91,1.63-2.42,2.96-4.54,3.99s-4.89,1.62-8.33,1.77h-.94c-3.39,0-6.22-.67-8.5-2.01-2.28-1.34-4-3.23-5.16-5.66-1.15-2.43-1.79-5.26-1.92-8.49v-1.05c0-4.04,.64-7.35,1.91-9.93,1.27-2.59,3.06-4.47,5.36-5.65,2.3-1.18,5.01-1.78,8.13-1.82,3.32,0,6.13,.45,8.43,1.35,2.31,.91,4.04,2.17,5.19,3.8,1.15,1.63,1.73,3.52,1.73,5.67v.27h-9.39Z"/><path class="cls-1" d="M212.1,6.61h8.85V26.53c0,2.35,.55,4.19,1.64,5.52,1.09,1.34,2.73,2,4.91,2,4.3-.07,6.45-2.61,6.45-7.62V6.61h8.94V27.17c0,3.98-1.25,7.18-3.75,9.59-2.5,2.41-6.41,3.67-11.73,3.77-2.35,0-4.47-.3-6.36-.9-1.88-.6-3.5-1.47-4.85-2.62-1.35-1.15-2.37-2.52-3.07-4.13-.7-1.6-1.04-3.37-1.04-5.3V6.61Z"/><path class="cls-1" d="M248.95,6.61h24.51v6.48h-15.53v6.78h14.33v6.48h-14.33v6.97h15.53v6.48h-24.51V6.61Z"/><path class="cls-1" d="M278.59,6.61h8.99v26.7h14.51v6.48h-23.49V6.61Z"/><path class="cls-1" d="M315.97,6.61h10.87l12.68,33.18h-9.96l-2.18-6.48h-13.04l-2.1,6.48h-8.94l12.68-33.18Zm9.22,20.28l-4.1-13.82h-.17l-4.31,13.82h8.58Z"/></g><g><path class="cls-1" d="M115.14,55.19h15.14c2.91,0,5.31,.4,7.19,1.19,1.88,.79,3.27,1.97,4.17,3.54,.9,1.57,1.36,3.53,1.4,5.87,0,2.17-.36,3.97-1.09,5.41-.72,1.44-1.7,2.54-2.92,3.31-1.22,.77-2.57,1.3-4.03,1.59-1.46,.29-3.04,.43-4.73,.43h-6.2v11.84h-8.94V55.19Zm8.94,6.48v8.44h4.37c1.71,0,3.01-.39,3.89-1.17,.88-.78,1.32-1.89,1.32-3.33-.08-2.62-1.91-3.94-5.48-3.94h-4.1Z"/><path class="cls-1" d="M154.04,55.19h8.99v13.17h10.85v-13.17h8.94v33.18h-8.94v-13.64h-10.94v13.64h-8.9V55.19Z"/><path class="cls-1" d="M195.62,55.19h8.99v33.18h-8.99V55.19Z"/><path class="cls-1" d="M217.38,55.19h8.99v26.7h14.5v6.48h-23.49V55.19Z"/><path class="cls-1" d="M251.57,55.19h8.99v33.18h-8.99V55.19Z"/><path class="cls-1" d="M273.59,55.19h15.14c2.91,0,5.31,.4,7.19,1.19,1.89,.79,3.27,1.97,4.17,3.54,.9,1.57,1.37,3.53,1.4,5.87,0,2.17-.36,3.97-1.09,5.41-.73,1.44-1.7,2.54-2.92,3.31-1.22,.77-2.57,1.3-4.02,1.59-1.46,.29-3.04,.43-4.73,.43h-6.2v11.84h-8.94V55.19Zm8.94,6.48v8.44h4.37c1.71,0,3.01-.39,3.88-1.17,.88-.78,1.32-1.89,1.32-3.33-.08-2.62-1.91-3.94-5.48-3.94h-4.1Z"/><path class="cls-1" d="M311.47,77.81h8.93c0,1.19,.36,2.24,1.08,3.15,.72,.92,1.96,1.44,3.73,1.57,1.58,0,2.84-.31,3.78-.93,.94-.62,1.42-1.41,1.42-2.38,0-.75-.21-1.39-.64-1.89-.43-.5-.96-.9-1.6-1.19-.64-.29-1.33-.54-2.08-.75-.75-.21-1.46-.4-2.12-.57-2.61-.61-4.7-1.22-6.27-1.83-1.57-.61-2.9-1.55-3.98-2.83-1.08-1.28-1.65-3.02-1.71-5.2,0-2.4,.59-4.38,1.78-5.93,1.19-1.56,2.82-2.7,4.9-3.44,2.08-.73,4.45-1.1,7.11-1.1,4.33,.04,7.56,.9,9.7,2.58,2.13,1.67,3.2,3.99,3.2,6.95,0,.4-.02,.7-.04,.92h-8.86c0-1.24-.38-2.22-1.14-2.95-.76-.72-1.84-1.09-3.22-1.09-1.15,0-2.11,.32-2.88,.96-.77,.64-1.15,1.38-1.15,2.2,0,1.69,1.77,2.95,5.29,3.77,2.42,.56,4.24,1.01,5.46,1.35,1.22,.34,2.41,.85,3.57,1.52,1.16,.67,2.11,1.62,2.86,2.83,.74,1.21,1.15,2.78,1.23,4.68,0,2.41-.64,4.43-1.91,6.06-1.27,1.63-2.99,2.85-5.13,3.64-2.14,.79-4.53,1.19-7.14,1.19-3.15,0-5.76-.41-7.84-1.23s-3.63-2.07-4.67-3.74c-1.03-1.67-1.58-3.78-1.65-6.32Z"/></g><g id="ESCUDO"><g><g><path class="cls-1" d="M16.03,11.55h7.48v1.98h-4.74v2.07h4.38v1.98h-4.38v2.13h4.74v1.98h-7.48V11.55Z"/><path class="cls-1" d="M25.11,18.46h2.73c0,.36,.1,.68,.32,.96,.22,.28,.6,.44,1.14,.48,.48,0,.87-.1,1.16-.29,.28-.19,.43-.43,.43-.73,0-.23-.06-.42-.2-.57-.13-.15-.29-.28-.49-.37-.19-.09-.41-.16-.63-.23-.23-.06-.45-.12-.65-.17-.8-.19-1.43-.38-1.92-.56-.48-.19-.89-.47-1.22-.87-.33-.39-.5-.92-.52-1.58,0-.74,.18-1.34,.55-1.82,.36-.47,.86-.82,1.49-1.05,.63-.22,1.36-.33,2.17-.33,1.32,.01,2.31,.28,2.96,.79,.65,.51,.98,1.22,.98,2.12,0,.12,0,.22-.01,.28h-2.7c0-.38-.12-.68-.35-.9-.24-.22-.56-.33-.98-.33-.35,0-.64,.1-.88,.29-.23,.2-.35,.42-.35,.67,0,.52,.54,.9,1.61,1.15,.74,.17,1.3,.31,1.67,.41,.37,.1,.74,.26,1.09,.46,.35,.21,.64,.49,.87,.87,.22,.37,.35,.85,.38,1.43,0,.73-.2,1.35-.59,1.85-.39,.5-.91,.87-1.57,1.11-.66,.24-1.38,.37-2.18,.37-.97,0-1.76-.13-2.4-.38-.63-.25-1.1-.63-1.42-1.14-.31-.51-.48-1.15-.5-1.93Z"/><path class="cls-1" d="M41.82,14.73c-.01-.44-.17-.78-.48-1.04-.31-.26-.71-.39-1.18-.39-.51,0-.91,.14-1.21,.41-.29,.28-.49,.67-.6,1.16-.12,.5-.17,1.11-.17,1.83,0,2.13,.62,3.2,1.84,3.23,.06-.02,.15-.03,.26-.03,.56-.06,.95-.2,1.18-.44,.23-.24,.37-.57,.41-1.01h2.84c0,.63-.14,1.19-.42,1.69-.27,.5-.74,.9-1.39,1.22-.64,.31-1.49,.49-2.55,.54h-.28c-1.04,0-1.9-.21-2.6-.62-.7-.41-1.22-.99-1.58-1.73-.35-.74-.55-1.61-.59-2.59v-.32c0-1.23,.2-2.24,.59-3.03,.39-.79,.93-1.36,1.63-1.72,.7-.36,1.53-.55,2.48-.56,1.01,0,1.87,.14,2.58,.41,.7,.28,1.23,.67,1.59,1.16,.35,.5,.52,1.08,.52,1.73v.09h-2.87Z"/><path class="cls-1" d="M46.57,11.55h2.7v6.08c0,.72,.17,1.28,.5,1.69,.33,.41,.83,.61,1.5,.61,1.31-.02,1.97-.8,1.97-2.33v-6.05h2.73v6.28c0,1.22-.38,2.2-1.14,2.93-.76,.74-1.96,1.12-3.59,1.15-.72,0-1.37-.09-1.94-.28-.58-.18-1.06-.45-1.48-.8-.41-.35-.73-.77-.94-1.26-.22-.49-.32-1.03-.32-1.62v-6.4Z"/><path class="cls-1" d="M58.17,11.55h7.49v1.98h-4.74v2.07h4.38v1.98h-4.38v2.13h4.74v1.98h-7.49V11.55Z"/><path class="cls-1" d="M67.56,11.55h2.75v8.16h4.43v1.98h-7.18V11.55Z"/><path class="cls-1" d="M79.32,11.55h3.31l3.88,10.13h-3.04l-.67-1.98h-3.98l-.64,1.98h-2.73l3.88-10.13Zm2.81,6.2l-1.24-4.22h-.06l-1.32,4.22h2.62Z"/></g><g><path class="cls-1" d="M16.03,24.69h4.62c.89,0,1.62,.12,2.2,.36,.58,.24,1,.6,1.27,1.08,.27,.48,.42,1.08,.43,1.79,0,.66-.12,1.21-.33,1.65-.23,.44-.52,.77-.9,1.01-.37,.23-.79,.39-1.23,.48-.44,.08-.93,.13-1.44,.13h-1.89v3.61h-2.73v-10.13Zm2.73,1.98v2.57h1.33c.52,0,.92-.12,1.18-.36,.27-.24,.4-.58,.4-1.02-.02-.8-.58-1.2-1.67-1.2h-1.25Z"/><path class="cls-1" d="M28.22,24.69h2.75v4.01h3.31v-4.01h2.73v10.13h-2.73v-4.16h-3.34v4.16h-2.72v-10.13Z"/><path class="cls-1" d="M41.23,24.69h2.75v10.13h-2.75v-10.13Z"/><path class="cls-1" d="M48.19,24.69h2.74v8.16h4.43v1.97h-7.18v-10.13Z"/><path class="cls-1" d="M58.95,24.69h2.74v10.13h-2.74v-10.13Z"/><path class="cls-1" d="M65.98,24.69h4.63c.89,0,1.62,.12,2.19,.36,.58,.24,1,.6,1.27,1.08,.28,.48,.42,1.08,.43,1.79,0,.66-.11,1.21-.33,1.65-.22,.44-.52,.77-.9,1.01-.37,.23-.78,.39-1.23,.48-.45,.08-.93,.13-1.44,.13h-1.89v3.61h-2.73v-10.13Zm2.73,1.98v2.57h1.34c.52,0,.92-.12,1.18-.36,.27-.24,.4-.58,.4-1.02-.03-.8-.58-1.2-1.68-1.2h-1.25Z"/><path class="cls-1" d="M77.86,31.6h2.73c0,.36,.11,.68,.32,.96,.22,.28,.6,.44,1.14,.48,.48,0,.87-.09,1.16-.28,.28-.19,.44-.43,.44-.73,0-.23-.07-.42-.2-.58-.13-.15-.3-.28-.49-.37-.19-.09-.4-.16-.64-.23-.22-.06-.45-.12-.64-.17-.8-.19-1.44-.37-1.92-.56-.48-.19-.89-.48-1.21-.87-.34-.39-.51-.92-.53-1.59,0-.74,.18-1.34,.55-1.82,.37-.47,.86-.82,1.5-1.04,.63-.23,1.35-.34,2.17-.34,1.32,.01,2.31,.28,2.96,.79,.65,.51,.98,1.22,.98,2.12,0,.12,0,.21-.02,.28h-2.7c0-.38-.12-.68-.35-.9-.23-.22-.55-.33-.98-.33-.35,0-.65,.09-.88,.29-.23,.2-.35,.42-.35,.67,0,.52,.54,.9,1.61,1.15,.74,.17,1.3,.31,1.67,.41,.38,.11,.74,.26,1.09,.47,.35,.2,.65,.49,.87,.86,.23,.37,.35,.85,.38,1.43,0,.74-.19,1.35-.59,1.85-.38,.5-.91,.87-1.56,1.11-.66,.24-1.38,.36-2.18,.36-.96,0-1.76-.12-2.39-.38-.64-.25-1.11-.63-1.42-1.14-.32-.51-.49-1.15-.51-1.93Z"/></g></g><path class="cls-7" d="M1.88,86.59L1.84,1.84H100.72V87.2c-.01,28.15-22.14,50.96-49.43,50.96S1.88,115.35,1.88,87.2v-.61Z"/><line class="cls-6" x1="61.91" y1="42.64" x2="92.84" y2="70.76"/><line class="cls-4" x1="53.52" y1="41.42" x2="70.06" y2="128.78"/><line class="cls-4" x1="49.11" y1="41.42" x2="32.49" y2="128.78"/><line class="cls-4" x1="44.86" y1="41.79" x2="8.65" y2="100.35"/><line class="cls-4" x1="40.67" y1="42.64" x2="9.74" y2="70.76"/><line class="cls-4" x1="32.49" y1="45.25" x2="70.06" y2="45.25"/><line class="cls-4" x1="26.22" y1="49.29" x2="76.33" y2="49.29"/><line class="cls-4" x1="18.89" y1="55.74" x2="83.62" y2="55.75"/><line class="cls-4" x1="13.23" y1="64.18" x2="89.32" y2="64.18"/><line class="cls-4" x1="8.65" y1="75.31" x2="93.9" y2="75.31"/><line class="cls-4" x1="6.8" y1="89.69" x2="95.75" y2="89.69"/><line class="cls-4" x1="11.4" y1="107.51" x2="91.17" y2="107.51"/><line class="cls-4" x1="28.27" y1="127.54" x2="74.28" y2="127.54"/><line class="cls-6" x1="57.69" y1="41.79" x2="93.9" y2="100.35"/><path class="cls-2" d="M32.28,50.55q.68,7.62,7.43,8.26-6.75,.71-7.43,8.85-.71-8.14-7.27-8.85,6.56-.64,7.27-8.26Z"/><path class="cls-2" d="M25.31,54.92q.92,10.29,10.02,11.15-9.1,.95-10.02,11.91-.96-10.96-9.8-11.91,8.84-.86,9.8-11.15Z"/><path class="cls-2" d="M72.28,103.27q.74,8.3,8.08,8.99-7.34,.76-8.08,9.6-.78-8.84-7.9-9.6,7.13-.69,7.9-8.99Z"/><path class="cls-2" d="M79.7,92.86q.92,10.29,10.03,11.14-9.11,.95-10.03,11.92-.96-10.97-9.8-11.92,8.84-.85,9.8-11.14Z"/><polyline class="cls-7" points="6.8 87.2 6.8 6.93 95.75 6.93 95.75 87.2"/><path class="cls-7" d="M95.75,87.18c0,25.33-19.91,45.87-44.47,45.87S6.8,112.51,6.8,87.18,26.71,41.31,51.28,41.31s44.47,20.54,44.47,45.87Z"/><g><path d="M59.18,73.02c-1.88-.5-21.15-3.63-21.15-3.63l-4.78,5.8-1.16,42.07,11.29,1.85,4.88-5.86,.28-7.35c.81,.22,4.72,.93,9.36,.73,9.23-.84,12.78-11.51,12.78-11.51,.71-1.66,1.18-3.72,1.21-6.28v-.25c-.02-11.92-10.89-15.09-12.69-15.56Z"/><path class="cls-1" d="M58.96,73.91c-1.55-.42-17.11-2.92-20.11-3.4l-1.04,40.09,9.63,1.67,.41-13.06s5.05,1.5,11.38,1.58c.18,.01,.39,.02,.62,.02,3.41-.05,10.95-1.26,11.12-11.95v-.28c.02-11.2-10.26-14.18-12.02-14.66Z"/><g><path class="cls-3" d="M50.77,90.73c1.27,.34,2.86,.69,4.16,.68,.07,0,.15,0,.23,0,.04-4.17-4.26-5.33-6.12-5.4l-.12,4.21c.38,.12,1.01,.28,1.86,.51Z"/><path class="cls-5" d="M56.43,81.59c-2.48-1.31-5.62-1.73-7.2-1.86-.58-.08-.86-.09-.91-.09,0,0-.3,11.23-.3,11.23,0,0,4.05,1.45,6.9,1.46,.14,0,.29,0,.43,0,2.96-.17,4.7-2.48,4.87-4.77,0-.17,.01-.35,.01-.53,.03-1.6-.67-3.98-3.81-5.43Zm-5.66,9.14c-.85-.23-1.48-.39-1.86-.51l.12-4.21c1.87,.07,6.16,1.23,6.12,5.4-.08,0-.15,0-.23,0-1.3,0-2.89-.34-4.16-.68Z"/></g></g></g></g></g></svg>