<?xml version="1.0" encoding="utf-8"?>
<!-- Generator: Adobe Illustrator 26.3.1, SVG Export Plug-In . SVG Version: 6.00 Build 0)  -->
<svg version="1.1" id="Layer_1" xmlns="http://www.w3.org/2000/svg" xmlns:xlink="http://www.w3.org/1999/xlink" x="0px" y="0px"
	 viewBox="0 0 241 93.9" style="enable-background:new 0 0 241 93.9;" xml:space="preserve">
<g id="ArgPrograma_Icon_00000178915655351063861760000010091609708763427774_">
	<path d="M74.8,0H8.4C3.8,0,0,3.8,0,8.4v47.7c0,4.6,3.8,8.4,8.4,8.4h66.4c4.6,0,8.4-3.8,8.4-8.4V8.4C83.2,3.8,79.4,0,74.8,0z
		 M17.5,45.4L17.1,45c-1.2-1-1.3-2.7-0.3-3.9l9-10.7l-9-10.7c-1-1.2-0.8-2.9,0.3-3.9l0.4-0.3c1.2-1,2.9-0.8,3.9,0.3l10.8,12.8
		c0.8,0.9,0.8,2.2,0.3,3.2c-0.1,0.2-0.2,0.4-0.4,0.6L21.4,45C20.4,46.2,18.7,46.4,17.5,45.4z M55.5,53.6H34.7c-1.7,0-3-1.4-3-3
		c0-1.7,1.4-3,3-3h20.8c1.7,0,3,1.4,3,3C58.5,52.2,57.1,53.6,55.5,53.6z"/>
	<g>
		<path d="M110,14.8h7.3l6.8,21.7h-5.3l-1.7-5.6h-7l-1.7,5.6h-5.3L110,14.8z M116,26.7c0,0-1.9-7-2.3-8.7c-0.4,1.8-2.3,8.7-2.3,8.7
			H116z"/>
		<path d="M126,19.9h4.1l0.2,2c1.2-1.4,1.3-1.8,2.8-1.8c0.7,0,2.4,0,2.9,0.2v4.1c-0.6-0.1-2.1,0-2.6,0c-1.3,0-1.7,0.7-2.7,1.7v10.4
			H126V19.9z"/>
		<path d="M122.3,48.2h4.1l0.2,2c1.2-1.4,1.3-1.8,2.8-1.8c0.7,0,2.4,0,2.9,0.2v4.1c-0.6-0.1-2.1,0-2.6,0c-1.3,0-1.7,0.7-2.7,1.7
			v10.4h-4.7V48.2z"/>
		<path d="M170.3,48.2h4.1l0.2,2c1.2-1.4,1.3-1.8,2.8-1.8c0.7,0,2.4,0,2.9,0.2v4.1c-0.6-0.1-2.1,0-2.6,0c-1.3,0-1.7,0.7-2.7,1.7
			v10.4h-4.7V48.2z"/>
		<path d="M138.4,38.6c1.7,0.4,3.9,0.7,5.6,0.7c1.8,0,3.1-0.8,3.1-2.4v-1.2c-0.7,0.4-1.8,0.7-2.9,0.7c-4.1,0-7.3-3.4-7.3-8.5
			c0-5,3.1-8.5,7.8-8.5c3,0,4.9,0.8,7.1,1.9v15.5c0,3.9-3.2,6.2-7.7,6.2c-1.7,0-4.1-0.3-5.8-0.7V38.6z M147,23.6
			c-0.6-0.3-1.2-0.4-2-0.4c-2.2,0-3.1,2.4-3.1,4.9c0,2.9,1.1,4.8,3,4.8c0.8,0,1.6-0.3,2.2-0.6V23.6z"/>
		<path d="M153,67.2c1.7,0.4,3.9,0.7,5.6,0.7c1.8,0,3.1-0.8,3.1-2.4v-1.2c-0.7,0.4-1.8,0.7-2.9,0.7c-4.1,0-7.3-3.4-7.3-8.5
			c0-5,3.1-8.5,7.8-8.5c3,0,4.9,0.8,7.1,1.9v15.5c0,3.9-3.2,6.2-7.7,6.2c-1.7,0-4.1-0.3-5.8-0.7V67.2z M161.7,52.3
			c-0.6-0.3-1.2-0.4-2-0.4c-2.2,0-3.1,2.4-3.1,4.9c0,2.9,1.1,4.8,3,4.8c0.8,0,1.6-0.3,2.2-0.6V52.3z"/>
		<path d="M168.4,36c-1.9,0.6-3.3,0.9-5.3,0.9c-6,0-8.4-3.9-8.4-8.7c0-4.7,2-8.7,7.2-8.7c5.2,0,7.6,3.4,7.6,9.9h-10.2
			c0.2,2.7,0.9,3.8,3.9,3.8c1.9,0,3.1-0.3,4.9-0.8L168.4,36z M164.7,26c-0.3-1.9-0.9-3-2.6-3c-1.7,0-2.1,1.2-2.4,3H164.7z"/>
		<path d="M190.9,24h-2.5v-3.7h2.5v-5.7h4.7v5.7h4.1l0,3.7h-4v7.1c0,1.4,0.2,1.5,1.5,1.5c0.8,0,2.7-0.1,2.7-0.1v3.9
			c-1.1,0.3-2.1,0.5-3.2,0.5c-2.9,0-5.7-1.5-5.7-5.5V24z"/>
		<path d="M204.5,13.1c1.5,0,2.6,1.1,2.6,2.5s-1.1,2.6-2.6,2.6s-2.6-1.1-2.6-2.6S203,13.1,204.5,13.1z M202.2,19.9h4.7v16.6h-4.7
			V19.9z"/>
		<path d="M210.2,19.9h4.4l0.1,1.8c1.1-0.9,2.6-1.7,4.4-1.7c3.7,0,5.8,2,5.8,5.8v10.6H220v-9.8c0-1.6-0.4-2.5-1.8-2.5
			c-1.2,0-2.3,0.7-3.1,1.4v10.9h-4.9V19.9z"/>
		<path d="M236.8,35.6c-1,0.9-2.5,0.9-3.9,0.9c-3.5,0-5.5-1.7-5.5-4.8c0-3.2,2.5-5.2,6.5-5.2c0.8,0,1.8-0.2,2.5,0v-0.9
			c0-1.4-0.3-2-2.1-2c-1.6,0-3.8-0.1-5.4,0.3l0-3.5c1.7-0.5,3.6-0.4,5.5-0.4c4.1,0,6.7,1.8,6.7,5.8v10.8h-4.1L236.8,35.6z
			 M236.3,29.4c-0.5-0.1-1.1-0.2-1.7-0.2c-1.6,0-2.4,0.7-2.4,1.9c0,1.3,0.6,2.1,1.9,2.1c0.8,0,1.5-0.3,2.2-0.9V29.4z"/>
		<path d="M232.5,64.2c-1,0.9-2.5,0.9-3.9,0.9c-3.5,0-5.5-1.7-5.5-4.8c0-3.2,2.5-5.2,6.5-5.2c0.8,0,1.8-0.2,2.5,0v-0.9
			c0-1.4-0.3-2-2.1-2c-1.6,0-3.8-0.1-5.4,0.3l0-3.5c1.7-0.5,3.6-0.4,5.5-0.4c4.1,0,6.7,1.8,6.7,5.8v10.8h-4.1L232.5,64.2z M232.1,58
			c-0.5-0.1-1.1-0.2-1.7-0.2c-1.6,0-2.4,0.7-2.4,1.9c0,1.3,0.6,2.1,1.9,2.1c0.8,0,1.5-0.3,2.2-0.9V58z"/>
		<path d="M189.9,64.2c-1,0.9-2.5,0.9-3.9,0.9c-3.5,0-5.5-1.7-5.5-4.8c0-3.2,2.5-5.2,6.5-5.2c0.8,0,1.8-0.2,2.5,0v-0.9
			c0-1.4-0.3-2-2.1-2c-1.6,0-3.8-0.1-5.4,0.3l0-3.5c1.7-0.5,3.6-0.4,5.5-0.4c4.1,0,6.7,1.8,6.7,5.8v10.8H190L189.9,64.2z M189.5,58
			c-0.5-0.1-1.1-0.2-1.7-0.2c-1.6,0-2.4,0.7-2.4,1.9c0,1.3,0.6,2.1,1.9,2.1c0.8,0,1.5-0.3,2.2-0.9V58z"/>
		<path d="M104.5,48.6h4.4l0.1,0.9c1-0.7,2.2-1.3,3.8-1.3c4.5,0,7.2,3.9,7.2,8.7c0,5.1-3,8.4-7.5,8.4c-1.1,0-2.2,0-3.1-0.4v6.4h-5
			V48.6z M109.5,61.2c0.6,0.4,1.3,0.3,2.3,0.3c1.8,0,3.1-1.4,3.1-4.6c0-3.2-1.1-4.6-3.1-4.6c-1,0-1.6,0.4-2.3,0.9V61.2z"/>
		<path d="M134,56.9c0-4.8,2.4-8.7,7.6-8.7c5.2,0,7.6,4,7.6,8.7c0,4.8-2.4,8.7-7.6,8.7C136.3,65.6,134,61.7,134,56.9z M144.6,56.9
			c0-3.2-0.9-5-3-5c-2.1,0-3,1.8-3,5c0,3.2,0.9,5,3,5C143.7,61.9,144.6,60.1,144.6,56.9z"/>
		<path d="M198.2,48.6h4.2l0.1,1.4c0.9-0.8,2.3-1.5,4.1-1.5c2.2,0,3.6,0.6,4.3,1.9c1-1.2,2.7-1.9,4.5-1.9c3.8,0,5.1,2.3,5.1,5.1
			v11.6h-4.7v-10c0-1.7-0.2-2.5-1.5-2.5c-0.9,0-2,0.8-2.7,1.5c0,0.2,0-0.3,0,0v11.1H207v-10c0-1.7-0.2-2.5-1.5-2.5
			c-1,0-1.9,0.8-2.7,1.4v11.1h-4.7V48.6z"/>
		<path d="M172,19.9h4.4l0.1,1.8c1.1-0.9,2.6-1.7,4.4-1.7c3.7,0,5.8,2,5.8,5.8v10.6h-4.9v-9.8c0-1.6-0.4-2.5-1.8-2.5
			c-1.2,0-2.3,0.7-3.1,1.4v10.9H172V19.9z"/>
	</g>
	<g>
		<path d="M105.2,87.1H104v-1.9h1.5l0.3-2.4h-1.2v-1.9h1.5l0.4-3h2.1l-0.4,3h2l0.4-3h2.1l-0.4,3h1.3v1.9h-1.6l-0.3,2.4h1.3v1.9h-1.5
			l-0.5,3.1h-2.1l0.4-3.1h-2l-0.4,3.1h-2L105.2,87.1z M109.5,85.2l0.4-2.4h-2l-0.4,2.4H109.5z"/>
		<path d="M118.5,85.6l-4-7.4h2.9l1.2,2.5c0.3,0.7,0.8,1.6,1.2,2.4c0.4-0.9,0.9-1.7,1.2-2.4l1.2-2.5h2.9l-4,7.4v4.6h-2.7V85.6z"/>
		<path d="M124.6,85.6c0-2.7,1.4-4.9,4.4-4.9s4.4,2.2,4.4,4.9c0,2.7-1.4,4.9-4.4,4.9S124.6,88.3,124.6,85.6z M130.8,85.6
			c0-1.8-0.5-2.8-1.8-2.8c-1.2,0-1.8,1-1.8,2.8s0.5,2.8,1.8,2.8C130.3,88.4,130.8,87.4,130.8,85.6z"/>
		<path d="M135.4,78.2h3.6c2.6,0,4.3,1.4,4.3,3.9c0,2.5-1.8,3.8-4.3,3.8H138v4.3h-2.7V78.2z M138.8,83.9c1.2,0,1.8-0.7,1.8-1.8
			s-0.6-1.8-1.8-1.8H138v3.6H138.8z"/>
		<path d="M144.9,80.9h2.3l0.1,1.1c0.7-0.8,1.4-1.3,2.3-1.3c0.4,0,0.8,0.1,1.1,0.2l-0.4,2c-0.3-0.1-0.6-0.1-0.9-0.1
			c-0.7,0-1.3,0.6-1.9,1.1v6.3h-2.6V80.9z"/>
		<path d="M151.3,85.6c0-2.7,1.4-4.9,4.4-4.9c3,0,4.4,2.2,4.4,4.9c0,2.7-1.4,4.9-4.4,4.9C152.7,90.5,151.3,88.3,151.3,85.6z
			 M157.5,85.6c0-1.8-0.5-2.8-1.8-2.8c-1.2,0-1.8,1-1.8,2.8s0.5,2.8,1.8,2.8C157,88.4,157.5,87.4,157.5,85.6z"/>
		<path d="M162.7,91.4c0.9,0.2,1.8,0.4,2.7,0.4c1,0,1.7-0.4,1.7-1.3v-0.7c-0.4,0.2-1,0.4-1.6,0.4c-2.2,0-3.9-1.9-3.9-4.7
			c0-2.8,1.7-4.8,4.2-4.8c1.6,0,2.7,0.4,3.9,1v8.7c0,2.2-1.7,3.5-4.2,3.5c-0.9,0-1.8-0.2-2.8-0.4V91.4z M167.1,83
			c-0.3-0.1-0.6-0.2-1.1-0.2c-1.2,0-1.7,1.3-1.7,2.7c0,1.6,0.6,2.7,1.6,2.7c0.4,0,0.9-0.1,1.2-0.4V83z"/>
		<path d="M171.9,80.9h2.3l0.1,1.1c0.7-0.8,1.4-1.3,2.3-1.3c0.4,0,0.8,0.1,1.1,0.2l-0.4,2c-0.3-0.1-0.6-0.1-0.9-0.1
			c-0.7,0-1.3,0.6-1.9,1.1v6.3h-2.6V80.9z"/>
		<path d="M183.2,89.7c-0.6,0.5-1.3,0.8-2.1,0.8c-1.9,0-3.1-1.4-3.1-3.2c0-1.8,1.4-2.8,3.6-2.8c0.5,0,1,0,1.4,0.1v-0.5
			c0-0.8-0.3-1.3-1.2-1.3c-0.9,0-1.5,0.1-2.4,0.4l-0.6-2c0.9-0.3,2-0.5,3-0.5c2.3,0,3.7,1.2,3.7,3.5v6h-2.3L183.2,89.7z M182.9,86.2
			c-0.3-0.1-0.6-0.1-0.9-0.1c-0.9,0-1.3,0.4-1.3,1.1c0,0.7,0.3,1.2,1.1,1.2c0.4,0,0.8-0.2,1.2-0.5V86.2z"/>
		<path d="M187.6,80.9h2.3l0.1,0.8c0.5-0.5,1.3-1,2.3-1c1.2,0,2,0.5,2.4,1.2c0.6-0.6,1.5-1.2,2.5-1.2c2.1,0,2.8,1.5,2.8,3v6.5h-2.6
			v-6.1c0-0.9-0.1-1.4-0.8-1.4c-0.5,0-1.1,0.4-1.5,0.8c0,0.1,0,0.3,0,0.4v6.2h-2.6v-6.1c0-0.9-0.1-1.4-0.8-1.4
			c-0.5,0-1.1,0.4-1.5,0.8v6.6h-2.6V80.9z"/>
		<path d="M201.7,85.6c0-2.7,1.4-4.9,4.4-4.9c3,0,4.4,2.2,4.4,4.9c0,2.7-1.4,4.9-4.4,4.9C203.1,90.5,201.7,88.3,201.7,85.6z
			 M207.9,85.6c0-1.8-0.5-2.8-1.8-2.8c-1.2,0-1.8,1-1.8,2.8s0.5,2.8,1.8,2.8C207.4,88.4,207.9,87.4,207.9,85.6z"/>
	</g>
</g>
</svg>
