<?xml version="1.0" encoding="UTF-8"?><svg id="Layer_2" xmlns="http://www.w3.org/2000/svg" xmlns:xlink="http://www.w3.org/1999/xlink" viewBox="0 0 340 110"><defs><style>.cls-1{fill:none;}.cls-2{clip-path:url(#clippath);}.cls-3{fill:#f7f7f7;}.cls-4{fill:#f9f9f9;}.cls-5{fill:#f8f8f8;}.cls-6{fill:#030302;}.cls-7{fill:#f4f4f4;}.cls-8{fill:#f5f5f5;}.cls-9{fill:#ededed;}.cls-10{fill:#fefefe;}.cls-11{fill:#fafafa;}.cls-12{fill:#fdfdfd;}.cls-13{fill:#7d7d7d;}.cls-14{fill:#7e7e7e;}.cls-15{fill:#7f7f7f;}.cls-16{fill:#818180;}.cls-17{fill:#969695;}.cls-18{fill:#7c7c7c;}.cls-19{fill:#b4b4b4;}.cls-20{fill:#858585;}.cls-21{fill:#cdcdcc;}.cls-22{fill:#bcbcbc;}.cls-23{fill:#bcbcbb;}.cls-24{fill:#d8d8d7;}.cls-25{fill:#cacac9;}.cls-26{fill:#c9c9c8;}.cls-27{fill:#dededc;}.cls-28{fill:#d1d1cf;}.cls-29{fill:#c3c3c2;}.cls-30{fill:#c4c4c4;}.cls-31{fill:#dbdbd9;}.cls-32{fill:#dadad9;}.cls-33{fill:#dadada;}.cls-34{fill:#afafae;}.cls-35{fill:#adadab;}.cls-36{fill:#d7d7d7;}.cls-37{fill:#c5c5c4;}.cls-38{fill:#161615;}.cls-39{fill:#252523;}.cls-40{fill:#242424;}.cls-41{fill:#222221;}.cls-42{fill:#222;}.cls-43{fill:#21211f;}.cls-44{fill:#20201f;}.cls-45{fill:#232322;}.cls-46{fill:#40403f;}.cls-47{fill:#0d0d0c;}.cls-48{fill:#1d1d1b;}.cls-49{fill:#0f0f0c;}.cls-50{fill:#1c1c1b;}.cls-51{fill:#949494;}.cls-52{fill:#80807f;}.cls-53{fill:gray;}.cls-54{fill:#2a2a29;}.cls-55{fill:#262624;}.cls-56{fill:#272725;}.cls-57{fill:#838383;}.cls-58{fill:#2e2e2d;}.cls-59{fill:#797979;}.cls-60{fill:#7a7a7a;}.cls-61{fill:#828281;}.cls-62{fill:#828282;}.cls-63{fill:#282826;}.cls-64{fill:#282827;}.cls-65{fill:#343433;}</style><clipPath id="clippath"><rect class="cls-1" width="340" height="110"/></clipPath></defs><g id="Layer_1-2"><g class="cls-2"><g><path class="cls-10" d="M173.61,132.08c-87.9,0-175.79-.01-263.69,.06-2.34,0-2.77-.52-2.77-2.78,.08-45.73,.08-91.46,0-137.19,0-2.24,.39-2.79,2.75-2.79,175.79,.07,351.58,.07,527.37,0,2.21,0,2.61,.47,2.6,2.62-.08,45.83-.08,91.67,0,137.5,0,2.13-.36,2.63-2.59,2.63-87.9-.07-175.79-.06-263.69-.06Z"/><path class="cls-48" d="M320.17,105.1c-.14-2.05-.29-4.09,.1-6.13,.7-3.11,.15-6.27,.31-9.4,.05-.9,.1-1.71,1.3-1.7,.98,0,1.25,.61,1.23,1.45-.18,6.39,.42,12.8-.32,19.18h-.01c-1.1,.92-2.43,.65-3.68,.65-30.42,.01-60.83,.02-91.25,0-1.15,0-2.35,.24-3.41-.47-.28-.66,0-.98,.66-1.05,.95-.1,1.91-.05,2.87-.05,30.07,0,60.15,0,90.22,0q3.66,0,3.67-3.54c0-1.59,0-3.17,0-4.76,0-3.29-.01-6.58,0-9.87-.02,3.27-.02,6.55-.02,9.82-.16,2.63,1.12,6.04-.49,7.7-1.75,1.81-5.24,.6-7.96,.6-26.41,.05-52.83-.31-79.24,.09-75.07,1.14-150.14,.18-225.2,.52-6.79,.03-6.79,0-6.79-6.6,0-22.91,0-45.82,0-68.73,0-.98-.08-1.96-.02-2.37,0,24.18,.02,48.92-.06,73.67,0,1.03,1.02,2.64-.95,3.19-.37-.7-.24-1.45-.25-2.19,0-25.36,.03-50.72-.06-76.09,0-2.38,.62-3.01,3.02-3.01,58.29,.07,116.57,.05,174.86,.05,.43,0,.85,.02,1.28,.07,.44,.28,.49,.62,.17,1.03-1.15,.33-2.33,.15-3.49,.15-55.19,.01-110.37,0-165.56,.02-.93,0-1.86-.11-3.56,.22,.72-.11,.7,0,.72,.19,.01,.09,0-.18,.2-.26,.8-.3,1.66-.13,2.49-.13,55.19,0,110.37-.01,165.56,.05,1.11,0,3.24-1.19,3.17,1.55-1.22,.56-2.52,.27-3.78,.27-55.91,.02-111.82,.01-167.73,.03-1.26,0-2.55-.29-3.78,.27-.84,1.12-.64,2.43-.64,3.68-.01,22.8-.01,45.6,0,68.4,0,4.06,.03,4.06,3.94,4.06,103.08,0,206.15,0,309.23-.03,1.06,0,2.33,.65,3.24-.53Z"/><path class="cls-37" d="M243.49,41.69c-1.34-.92-2.87-.6-4.33-.61-11.75-.08-23.46-.62-34.98-3.19-.1-.02-.21-.02-.31-.05-10.01-2.41-10.24-2.6-10.13-12.77,.03-2.91-.74-5.9,.52-8.75,3.93,.16,7.57,1.31,11,3.15,.09,.47-.07,.75-.58,.76,.21,.12,.44,.07,.64-.01,.83-.36,1.72-.51,2.59-.76,.78-.15,1.54-.17,2.24,.26,.23,.21,.34,.47,.33,.78-.25,.35-.54,.56-.96,.23,.18,.44,.52,.25,.77,.15,.88-.34,1.73-.78,2.69-.92,2.99,.42,6.17-.34,8.91,1.51-.58,1.49-1.7,.53-2.54,.69,1.23,.38,2.52-.16,3.81-.16,.46,.07,.89,.22,1.31,.39,.28,.09,.56,.21,.83,.32,1.43,.54,2.85,.4,4.27-.09,.76-.23,1.51-.51,2.28-.7,1.86-.27,3.71-.46,5.53,.18,.3,.15,.49,.39,.55,.72-.64,1.47-2.1,.81-3.14,1.25,1.4-.23,2.85-.18,4.16-.89,1.03-.22,2.06-.23,3.11-.12,2.06,.32,2.32,1.84,2.35,3.51,.08,4.29-.07,8.59,.09,12.88,.09,.37,.11,.74,.07,1.11-.12,.6-.48,.98-1.08,1.13Z"/><path class="cls-30" d="M288.88,7.97c.7,.11,.88,1.39,1.84,.84,5.83-3.35,11.11-.82,15.76,2.21,9.8,6.39,17.29,15.1,23.17,25.16,.79,1.35,1.42,2.81,2.12,4.21,.64,1.14,.27,2.12-.82,2.52-.89,.32-1.4-.62-1.9-1.29-.59-.78-.62-2.05-1.92-2.23-.28-.03-.52-.15-.73-.33-.61-1.06-1.25-2.1-2.06-3.02-1.48-2.06-2.97-4.11-4.38-6.21-.48-.86-1.11-1.64-1.31-2.64-.12-1.02-.35-1.94-1.71-1.83-.29,0-.55-.09-.78-.25-.73-.83-1.47-1.65-2.46-2.2-1.13-.84-2.02-1.9-2.96-2.93-.55-.6-1.44-.88-1.72-1.75-.45-1.98-1.81-2.78-3.73-2.84-1.25,0-2.24-.63-3.24-1.25-5.56-2.38-6.44-2.17-9.75,2.26-.62,.83-.44,2.25-1.84,2.52-.33,2.3,.21,4.65-.61,6.51-.04-.11,.03-.61,.33-1.09,1.12-.07,1.53,.65,1.61,1.55,.47,5.04,2.54,9.56,4.61,14.07,.67,1.99,2,3.59,3.13,5.31,.76,1.68,1.71,3.24,3.11,4.49,.63,1.25,1.2,2.53,2.11,3.62,.94,1.04,1.7,2.25,2.93,3.01,.6,.39,1.03,.92,1.4,1.52,.39,.71,.9,1.32,1.56,1.8,.2,.19,.37,.41,.51,.65,.35,.95,1.06,1.6,1.86,2.17,3.43,3.35,7.14,6.26,11.91,7.52,1.63,.48,3.25,.85,4.88-.01,.24-.12,.49-.23,.74-.34,1.04-.46,1.69-1.25,2.08-2.29,.4-1.18,.69-2.39,.87-3.63,.03-1.27,.38-2.52,.23-3.8-.15-.72-.41-1.41-.6-2.11-.34-2.26-.17-4.63-1.38-6.72-.43-.98-1.21-1.86-.86-3.05,.52-.86,.35-1.81,.41-2.75,.07-1.1,.09-2.4,1.76-2.42,3.48,6.93,5.47,14.18,5.16,22.01-.33,8.28-6.04,12.52-14,10.18-7.4-2.17-13.31-6.82-18.12-12.48-5.4-6.35-10.47-13.05-14.13-20.67-3.72-7.76-6.32-15.72-5.58-24.46-.31-.55-1.19-.18-1.42-.87,1.83-2.66,3.01-5.62,3.94-8.68Z"/><path class="cls-48" d="M237.73,22.67l-6.34-.11c-.6,.49-1.3,.25-1.96,.27-1.86-.05-3.74,.01-5.56-.5-.61-.25-1.4,.17-1.88-.52l-9.8-1.09c-.61,.27-1.22,.45-1.76-.15-.12-.15-.23-.29-.35-.45,.82-.75,1.76-.37,1.99-.36-1.55,.34-3.84-1.14-6.03,.31-.29,.15-.56,.12-.81-.09-3.5-1.69-7.56-1.72-10.97-3.66-.2-2.98,2.63-2.84,4.1-3.24,3.85-1.06,7.9-1.36,11.93-1.29,.23,.34,.27,.69,.11,1.07-1,1.16-2.37,.73-3.59,.75-1.59,.02-3.16,.02-4.3,.78,3.16-1.43,6.86-.9,10.41-.97,11.92-.23,23.85-.09,35.78-.1,3.94,0,7.81,1,11.77,.76,1.24-.08,2.2,.73,3.28,1.12,2.97-.28,5.79,.73,8.72,.77-2.84-.08-5.57-1.07-8.46-.79-.65-.2-1.01-.51-.45-1.17,1.72-.58,3.42-.6,5.1,.15l7.43,.81c.23,.19,.42,.42,.56,.68,.32,.98,.26,2.05,.73,3,.53,1.55-.47,1.88-1.65,2.06-.45,.06-.9,.08-1.35,.11-1.08,.04-1.97,.67-2.97,.95-.77,.19-1.53,.19-2.29-.05-.97-.66-2-1.03-3.19-.7,.78,.01,1.72-.5,2.18,.64-.06,1.01-.8,1.15-1.56,1.15-3.57-.03-7.09,.91-10.67,.56-1.13-.03-2.19-.32-3.19-.83-3.04-.63-6.03-.66-9.06,.26-1.92,.58-3.95,.7-5.89-.17Z"/><path class="cls-65" d="M224.5,108.35c26.91,.03,53.83,.05,80.74,.09,5.85,0,11.7,.05,17.55,.07-.13,.48-.12,1.06-.9,1.02-.85-.04-1.7,0-2.56,0-104.85,0-209.7,0-314.55-.04-1.22,0-2.81,.9-3.69-.85,.15-.15,.3-.3,.45-.45,1.12-.5,2.31-.27,3.47-.27,71.8-.01,143.6-.01,215.39,0,1.37,0,2.78-.25,4.08,.45Z"/><path class="cls-37" d="M255.75,22.69c4.1-.32,8.23-.31,12.26-1.29,.3-.54,.68-.44,1.09-.14l2.45-.11c.88-.32,1.52-.04,1.93,.79,.24,.56,.31,1.14,.34,1.74,.05,3.91,.03,7.83,.02,11.74,0,1.25,.15,2.57-.81,3.62-5.09,1.54-10.42,1.22-15.62,1.95-1.24,.18-2.53,.04-3.72,.59-.25-.28-.44-.6-.58-.95-.7-2.65,.57-5.19,.46-7.84-.11-2.83-.1-5.67-.25-8.5,.19-.5,.57-.77,1.08-.87,1.12,.08,2.2,.73,3.34,.32-.72,.15-1.37,.07-1.97-.31-.16-.16-.21-.32-.16-.49,.05-.17,.1-.25,.15-.25Z"/><path class="cls-20" d="M273.02,39.03l-.04-15.82c1.01-.12,.85,.61,.93,1.22,.49,3.88,.39,7.76,.15,11.35-.02,.72,.66,.31,.25,.42-.08,.02-.13-.08-.12-.29,.28-4.5-.35-9.02,.17-13.52,.11-.88,.59-1.57,1.15-2.23,.74-.21,2.06,.04,1.17-1.46-.53-1.01,.18-2.22-.51-3.2-.05-.16-.08-.33-.08-.5,2.04-.08,3.83-.04,2.78-3.19-.9-2.7,.75-4.99,3.69-6.09,.97-.37,2.02-.34,1.82-1.94-.25-1.99,.93-3.2,2.86-3.51,1.76-.28,3.17,.48,3.93,2.06,.88,1.83,.03,3.24-1.48,4.35-.44,.33-1.37,.34-.81,1.29-.13,3.45-.79,6.66-3.9,8.79-.7,.87-.79,1.75-.64,2.91,.74,5.62,.63,11.26,.09,16.89-3.72,1.19-7.46,2.33-11.41,2.48Z"/><path class="cls-11" d="M180.25,27.02l-.1-.62c-.15-.12-.21-.24-.18-.37,.03-.14,.07-.21,.12-.21,1.48,3.01,1.1,3.75-2.08,3.76-11.4,.02-22.79,0-34.19,0-45.05,0-90.11,0-135.16,0h-3.46v.56H180.22c-1.73,1.03-2.89,.69-3.99,.69-55.71,.02-111.41,.01-167.12,.02-5.3,0-4.7-.56-4.7,4.83-.02,21.64-.02,43.28,.03,64.92,0,1.09-.77,2.44,.85,3.36,.57,.32-.73,.78-.9,1.35-1.47-.04-.92-1.19-.92-1.87-.03-24.34-.03-48.68-.03-73.02,0-.53-.03-1.06,.48-1.42,58.13,.02,116.26,.04,174.39,.06,.42,0,.84-.09,1.26-.14,.64-.49-.04-1.43,.65-1.9Z"/><path class="cls-65" d="M3.94,29c-.06,4.03-.17,8.05-.17,12.08-.02,20.36-.02,40.73,.03,61.09,0,1.02-.73,2.32,.6,3.14,1.17,.06,2.33,.16,3.5,.16,102.73,0,205.45,0,308.18,0,1.37,0,2.78,.28,4.09-.36-.88,1.7-2.47,.89-3.7,.9-35.68,.05-71.35,.04-107.03,.04-67.31,0-134.61,0-201.92,0q-4.41,0-4.41-4.53c0-23.01-.01-46.03,.03-69.04,0-1.16-.65-2.59,.8-3.47Z"/><path class="cls-65" d="M180.09,25.81c.09,.19,.11,.38,.06,.58-34.4,0-68.8,.02-103.21,.02-24.18,0-48.36,.04-72.53-.05-2.51,0-3.25,.67-3.24,3.2,.1,25.88,.08,51.76,.09,77.64,.34,.36,.37,.74,.1,1.16-.08,.09-.17,.17-.25,.26-1.11-.65-.56-1.73-.56-2.58-.03-25.77,.02-51.54-.1-77.3-.01-2.79,1.06-3.01,3.33-3,57.6,.09,115.21,.12,172.81,.16,1.17,0,2.34-.05,3.51-.08Z"/><path class="cls-20" d="M253.68,40.98c.01,.2,.01,.39,0,.59-3.4,.04-6.78,1.45-10.19,.12l.68-.68c.22-.21,.38-.47,.47-.76-.03-2.01,.13-4.03-.41-6.01-.07-1.97-.06-3.94-.01-5.9,.15-1.39,.79-2.78,.1-4.2-.2-.2-.43-.35-.69-.47-.71-.27-1.44-.13-2.17-.17-1.09-.01-2.17,.03-3.26-.03-.12-.11-.23-.21-.35-.32-.02-.17-.06-.33-.12-.48,4.46,.58,8.55-2.54,13.09-1.29,.75,.21,1.75-.31,2.15,.81,0,.33-.16,.51-.49,.55-.86-.24-1.73-.14-2.28-.34,.07-.05,.47,.17,.89,.18,1.65,.2,2.26,1.16,2.43,2.75,.4,3.67,.32,7.32,.08,10.98-.11,1.57-.35,3.11,.08,4.66Z"/><path class="cls-43" d="M250.02,68.81c0,5.42-4.32,9.73-9.68,9.64-5.37-.1-9.63-4.22-9.67-9.37-.05-5.77,4.23-10.27,9.73-10.25,5.55,.03,9.61,4.24,9.62,9.98Z"/><path class="cls-43" d="M265.27,70.12c1.95,2.5,3.88,4.97,5.86,7.51-3.04,1.22-4.09-.75-5.33-2.49-1.2-1.7-2.48-3.33-4.25-5.69,0,2.77,0,4.72,0,6.68,0,.94,.2,1.97-1.36,1.88-1.22-.07-1.31-.8-1.31-1.72,0-5.09,0-10.18,0-15.27,0-.52-.08-1.07,.42-1.45,2.07-1.56,9.27,.4,10.3,2.79,1.63,3.81,.44,6.01-4.34,7.75Z"/><path class="cls-44" d="M263.38,14.21l.61,.7c.21,.14,.28,.28,.21,.42-.07,.14-.14,.21-.21,.21-6.72-.81-13.45-1.29-20.23-1.28-12,.02-24,.08-36-.05-2.76-.03-5.39,1.25-8.17,.55,3.19-2.45,7.24-1.1,10.68-2.41,7.8-.73,15.62-.83,23.44-.47,3.27,.15,6.54,.37,9.8-.09,5.65,.03,11.28,.26,16.88,1.09-.43,.79-1.2,.7-1.65,.73,.94-.13,2.28,.46,3.33-.63h1.28c.37,.41,.38,.81,.03,1.22Z"/><path class="cls-45" d="M22.14,74.06c-1.43,1.11-.87,4.99-3.59,3.67-1.8-.88,.51-3.17,1.08-4.74,1.54-4.26,3.34-8.42,5.07-12.61,.23-.56,.32-1.33,1.06-1.46,.64-.12,.83,.47,1.04,.97,2.48,5.92,4.98,11.83,7.49,17.81-1.47,.45-2.58,.65-3.42-1.08-2.21-4.53-2.29-4.49-7.93-3.78-.37,.34-.03,1.14-.8,1.22Z"/><path class="cls-56" d="M75.36,72.65c-.56,0-.89-.06-1.2,.01-1.07,.24-2.44-.65-3.18,.58-.41,.69,.39,1.34,.87,1.89,.99,1.13,2.26,.97,3.53,.67,.3-.07,.58-.28,.83-.47,.94-.71,2-2.29,2.97-.43,.69,1.32-1.05,1.83-1.94,2.37-2.53,1.52-5.82,1.05-7.6-.93-1.94-2.16-2.01-5.81-.16-8.22,1.66-2.16,4.6-2.77,7.17-1.47,.86,.44,1.65,1.01,2.08,1.91,.54,1.15,1.36,2.54,.56,3.58-1.01,1.3-2.79,.2-3.95,.53Z"/><path class="cls-39" d="M175.05,71.83c.03,3.19-2.85,6.06-6.14,6.14-3.53,.09-6.32-2.65-6.31-6.17,.02-3.43,2.61-6.07,6-6.13,3.43-.05,6.42,2.8,6.45,6.16Z"/><path class="cls-64" d="M92.86,72.28c0-1.06,.01-2.11,0-3.17-.03-1.86-.1-3.73,2.67-2.16,.15,.09,.4,.02,.6,0,5.79-.78,6.62-.09,6.63,5.61,0,1.16,0,2.33,0,3.49,0,.96,.12,2.02-1.36,1.95-1.28-.06-1.12-1.01-1.13-1.84,0-1.69,0-3.38-.01-5.08-.02-1.47-.79-2.61-2.2-2.62-1.49-.02-2.56,.99-2.62,2.63-.06,1.8-.02,3.59-.02,5.39,0,.8-.1,1.48-1.15,1.52-1.16,.05-1.43-.62-1.42-1.59,.02-1.37,0-2.75,0-4.12Z"/><path class="cls-39" d="M125.91,74.74c.8,3.43-1.28,3.28-3.26,3.28-4.47,0-6.76-2.39-6.38-6.69,.3-3.48,3.55-5.85,7.31-5.3,.52,.07,1.02,.28,1.52,.44,.89,.29,1.02,1,.9,1.78-.21,1.32-1.05,.66-1.66,.44-1.16-.43-2.25-.45-3.37,.11-1.87,.95-2.68,2.44-2.02,4.43,.69,2.07,2.3,3,4.47,2.63,.79-.13,1.51-.67,2.49-1.13Z"/><path class="cls-54" d="M50.24,77.99c-1.12,0-1.04-.8-1.04-1.54,0-1.79,.05-3.58-.02-5.37-.04-1.03,.56-2.38-1.26-2.7-.58-.1-.65-1.23-.44-1.26,3.32-.42,.35-4.14,2.69-5,.09-.03,.21-.02,.32-.01,.59,.03,1.32,.51,1.02,.85-1.98,2.31,3.62,3.42,.87,5.57-.91,.71-.75,1.4-.77,2.16-.06,1.89-.04,3.79-.01,5.69,.01,.96-.18,1.69-1.36,1.61Z"/><path class="cls-40" d="M194.77,69.1c-1.84-.93-3.53-1.33-4.37,1.23-.55,1.98-.12,3.99-.27,5.99-.04,.56-.17,1.06-.79,1.2-.46,.1-1-.19-.97-.56,.28-3.47-1.24-7.08,.81-10.41,.96,.57,1.81,.45,2.87,0,1.99-.84,3.75,.02,4.78,1.72,1.67,2.75,.73,5.85,.66,8.81-.01,.46-.97,1.49-1.97,.6-.85-2.81,.53-5.81-.75-8.58Z"/><path class="cls-41" d="M283.18,59.6c1.38-.43,2.21-.23,2.16,1.52-.12,4.63-.14,9.27-.19,13.91,1.92,1.68,4.36,0,6.39,.98v-.02c.34,.68,.24,1.27-.5,1.55-.49,.18-1.05,.08-1.59,.1-6.6,.24-6.66,.24-6.57-6.33,.05-3.9-.4-7.82,.29-11.7Z"/><path class="cls-50" d="M243.52,11.8c-.98,.94-2.21,.54-3.34,.55-9.97,.03-19.93,.01-29.9,.01,0-.19,0-.38,0-.57,11.08-.74,22.16-.56,33.24,0Z"/><path class="cls-54" d="M146.57,72.35c0,1.37-.02,2.75,0,4.12,.02,1.02-.33,1.59-1.47,1.53-.96-.05-1.26-.58-1.26-1.44,0-2.86,.03-5.71,0-8.56-.01-1.07,.39-1.52,1.49-1.5,1.01,.02,1.25,.55,1.24,1.4-.01,1.48,0,2.96,0,4.44Z"/><path class="cls-65" d="M322.8,108.49c0-5.07,.08-10.14-.09-15.2-.06-1.64,.95-4.73-.78-4.65-2.05,.1-.66,3.12-1.01,4.82-.37,1.81,.64,3.79-.65,5.5-.04-3.28-.07-6.55-.12-9.83-.02-1.01,.3-1.63,1.45-1.57,.85,.04,1.86-.12,1.8,1.15-.32,6.59,.64,13.21-.6,19.77Z"/><path class="cls-37" d="M327.29,39.14c.1-.86,.45-1.24,1.08-.37,.85,1.18,1.08,2.75,2.25,3.78,.9-.5,1.05-1.31,1.15-2.15,.8,.66,1.16,1.54,1.26,2.55-.96,.92-1.52,1.93-.9,3.3,.42,.93,.25,1.62-.92,1.76-.12-.08-.23-.15-.35-.23-.43-.56-.71-1.22-1.12-1.79-.77-2.3-3.21-4.01-2.45-6.85Z"/><path class="cls-54" d="M283.18,59.6c0,4.73,.21,9.46-.06,14.17-.17,3.05,1,4.04,3.76,3.52,1.58-.3,3.68,1.13,4.65-1.3,.54,.97,.76,1.83-.76,2.01-.42,.05-.85,0-1.27,.01-6.86,.14-6.97,.14-6.82-6.66,.09-3.91-.69-7.88,.5-11.75Z"/><path class="cls-28" d="M284.43,36.55c.02-4.33,.1-8.66,.02-12.98-.02-1.18,.58-2.49-1.02-3.57-.6-.4-1.28-3.22,1.55-3.24,.55,.1,1.13,.13,1.38,.76-1.71,.12-1.24,1.43-1.25,2.39-.02,4.46,.04,8.91,0,13.37,0,1.11,.41,2.37-.67,3.28Z"/><path class="cls-64" d="M189.18,66.55c-1.33,3.42-.3,6.87-.27,10.34,1.77-1.96,.02-4.59,1.48-6.56,.02,2.11,.04,4.22,.05,6.32,0,.68-.18,1.28-1,1.33-.67,.04-1.37-.12-1.37-.93,.02-3.45-.39-6.91,.24-10.34,.02-.11,.57-.12,.87-.17Z"/><path class="cls-58" d="M173.46,59.69c-.74,1.76-1.59,3.18-2.97,4.18-.36,.26-1.09,.37-1.46,.19-.6-.29-.22-.88,0-1.34,.85-1.83,1.22-4.3,4.44-3.02Z"/><path class="cls-11" d="M257.05,77.11v-16.77h.32v16.89l-.32-.11Z"/><path class="cls-65" d="M145.33,63.08c-1.08-.29-1.65-.85-1.59-2.01,.07-1.13,.49-1.82,1.7-1.64,1.17,.17,1.44,1.07,1.39,2.07-.04,.97-.62,1.47-1.5,1.57Z"/><path class="cls-48" d="M262.08,12.99c-1.9,2.8-4.37,.67-6.58,.84,1.48-1.26,3.3-.53,4.91-.94,.56,.03,1.12,.07,1.67,.1Z"/><path class="cls-3" d="M148.12,67.19v10.01h-.3v-10.01h.3Z"/><path class="cls-46" d="M263.38,14.21c0-.4-.02-.81-.03-1.21,1.83,.13,3.83-.55,5.3,1.18-1.76,.01-3.51,.02-5.27,.03Z"/><path class="cls-8" d="M22.14,74.06c.03-.56-.03-1.17,.8-1.22,1.48,1.44,3.48,.1,5.08,1.06-1.98-.36-3.85,1.39-5.88,.16Z"/><path class="cls-64" d="M194.77,69.1c1.73,2.73,.46,5.72,.75,8.57-1-2.79,.26-5.78-.75-8.57Z"/><path class="cls-54" d="M291.55,76.01c-2.13-.33-4.52,1.05-6.39-.98,1.99,1.22,4.43-.44,6.39,.98Z"/><path class="cls-5" d="M251.73,66.59v4.21h-.31v-4.15l.31-.06Z"/><path class="cls-3" d="M80.84,70.21c.41,.68,.4,1.32,0,2.16-.46-.81-.51-1.46,0-2.16Z"/><path class="cls-42" d="M1.36,108.36c-.03-.38-.07-.77-.1-1.15,1.05-1.07,.57-2.42,.57-3.64,.03-24.4,.01-48.8,.06-73.21,0-1.09-.68-2.57,1.64-3.6-1.29,1.74-1.03,3.16-1.03,4.55,0,23.98,.05,47.96-.08,71.93-.02,3.15,.69,4.09,4.02,4.09,103.77-.1,207.53-.09,311.3-.01,3.09,0,4.25-.84,3.84-3.89-.19-1.46-.03-2.97-.03-4.45,.21-.28,.42-.29,.63,0-.21,2.82,1.21,6.41-.6,8.27-1.83,1.88-5.45,.61-8.28,.61-28.37,.05-56.74,.03-85.11,.05-1.23,0-2.55-.44-3.69,.44-1.06,.03-2.12,.1-3.19,.1-72.36,0-144.72,0-217.09,0-.96,0-1.91-.06-2.87-.09Z"/><path class="cls-63" d="M180.25,27.02c.04,.72,.73,1.66-.65,1.9-.53-2.09-2.25-1.22-3.44-1.23-16.51-.06-33.03-.04-49.54-.04-38.46,0-76.92,0-115.38,0-1.16,0-2.31,0-3.47,0v-.63H180.25Z"/><path class="cls-55" d="M322.18,98.97h-.63c0-3.14,0-6.28,0-9.41h.63v9.41Z"/><path class="cls-21" d="M241.59,23.34l2.53-.06c.57,.57,.75,1.31,.65,2.06-.53,4.23-.21,8.45,.02,12.67,.05,.83,.08,1.72-.64,2.37-1.35-4.54-.27-9.18-.6-13.77-.1-1.36,.26-2.93-1.94-2.78-.19-.1-.26-.21-.2-.32,.06-.11,.12-.17,.19-.17Z"/><path class="cls-34" d="M244.15,40.38c0-5.7-.02-11.4-.03-17.1,.2-.03,.4-.06,.6-.08,.73,1.45,.45,2.93,.14,4.41v7.09c.39,2.11,.49,4.22-.06,6.33-.21,0-.43-.01-.64-.02,0-.21,0-.42-.02-.63Z"/><path class="cls-47" d="M205.82,19.91c.28-1.57,1.54-1.23,2.5-1.12,1.73,.19,3.44,.56,6,1.01-1.98,.15-3.11,.24-4.25,.33-.79-.02-1.58-.04-2.36-.06-.66,.3-1.31,.47-1.89-.16Z"/><path class="cls-22" d="M238.41,23.85c-1.5,1.13-3.1,.54-4.7,.26,1.31-.66,2.68-1.01,4.14-.96h-.07c.19,.25,.58,.32,.63,.7Z"/><path class="cls-32" d="M229.68,22.46l1.71,.1c-.47,.75-1.24,.61-1.94,.66-1.48,.43-2.96,.46-4.44-.02-.2,0-.4-.02-.61-.02,1.52-2,3.5-.61,5.28-.72Z"/><path class="cls-29" d="M229.68,22.46c-1.72,.53-3.67-.58-5.28,.72-.23-.22-.47-.44-.7-.67-.21-.13-.28-.25-.21-.38,.07-.12,.15-.18,.22-.18,2.01-.04,4.02-.12,5.97,.5Z"/><path class="cls-31" d="M223.71,21.97c0,.19,0,.37-.01,.56-1.64,0-3.27,0-4.91,0l-.05-.39c1.08-.11,2.17-.21,3.25-.32,.57,.05,1.15,.1,1.72,.15Z"/><path class="cls-23" d="M225,23.2c1.48,0,2.96,.01,4.44,.02-1.48,.96-2.96,.98-4.44-.02Z"/><path class="cls-36" d="M205.82,19.91l1.89,.16c-.91,.94-2.08,.7-3.07,.41-.38-.11,.31-.37,.59-.5,.21,.05,.4,.03,.59-.07Z"/><path class="cls-27" d="M210.42,20.57l1.76,.15c-.99,.92-2.1,.59-3.6,.29l1.84-.44Z"/><path class="cls-33" d="M238.41,23.85c-.21-.23-.42-.46-.63-.69,1.27,.06,2.54,.12,3.81,.18,.01,.16,.02,.32,.02,.49-1.07,0-2.13,.02-3.2,.02Z"/><path class="cls-20" d="M327.29,39.14c1.08,2.33,2.15,4.65,3.23,6.98-.32,.78,.02,1.39,.53,1.94l.16-.05c-.21,1.14,.99,1.63,1.19,2.58-.41,1.11,.28,2.1,.36,3.16-.15,1.32,.23,2.58,.45,3.86,.14,.24,.33,.44,.57,.59,.76,.46,.6,1.21,.62,1.91-.14,.22-.3,.42-.46,.62-.38,.87-.3,1.76-.09,2.65,.14,.22,.3,.42,.5,.59-.42,1.29-.32,2.75-1.26,3.87-.87,.83-1.52,1.89-2.57,2.55l.02-.02c-1.85,.88-3.86,.06-5.75,.52-4.88-1.53-9.17-3.92-12.21-8.17-.8-.73-1.06-1.87-1.93-2.56h0c-.62-.66-1.27-1.29-1.93-1.91-.42-.4-.84-.81-1.25-1.21-.84-1.28-1.48-2.76-3.13-3.29-1.07-1-2.07-2.04-2.04-3.65-.62-1.53-1.94-2.68-2.4-4.29-.4-2.46-2.38-3.74-4-5.29-2.41-4.8-4.95-9.56-4.82-15.17,0-.27-.57-.55-.88-.82-.47-1.92-.49-3.83,.01-5.74,1.46-.33,.55-1.86,1.3-2.55,3.12-3.17,6.78-3.3,10.72-1.92,1.38,.28,2.5,1.4,4.02,1.21,1.23,.33,2.34,.82,2.76,2.17-.06,1.51,.96,1.74,2.14,1.78,.91,1,1.82,2,2.73,3,.9,.87,1.79,1.75,2.66,2.65,.17,0,.34,.01,.51,.03,.98,.21,1.51,.81,1.61,1.8,.02,1.22,.81,1.95,1.7,2.62,1.69,1.94,3.3,3.93,4.42,6.27,.59,1.15,1.07,2.36,2.04,3.27,.16,0,.31,.02,.46,.06Z"/><path class="cls-20" d="M302.36,14.92c-2.29-.4-4.56-.75-6.93-.62-1.68,.09-1.88,2.82-3.92,1.9,3.46-6,6.56-4.82,10.89-2.69,.32,.48,.33,.95-.04,1.41Z"/><path class="cls-57" d="M295.9,40.48c2.72,.74,3.95,2.09,4.54,5-.44,.4-.89,.37-1.35,.03-1.59-1.34-2.51-3.11-3.19-5.02Z"/><path class="cls-16" d="M332.41,53.76c-.44-1.06-1.21-2.11-.01-3.18,1.32,2.38,1.4,4.98,1.38,7.61-.24,0-.49,.02-.73,.03-.12-1.5-1.02-2.89-.64-4.46Z"/><path class="cls-20" d="M299.09,45.51l1.35-.03c.46,1.59,2.27,2.64,1.86,4.59-1.8-1.01-2.81-2.57-3.21-4.56Z"/><path class="cls-37" d="M308.77,18.05c-.58-.96-1.17-1.9-2.49-1.88-.41-.3-1.08-.45-.73-1.21,2.4-.22,3.74,.87,3.85,3.12-.22,.32-.43,.32-.63-.02Z"/><path class="cls-26" d="M290.21,18.75c0,1.91,0,3.83-.01,5.74-.03,.59-.05,1.19-.08,1.78h-.54c0-2.63,0-5.26,0-7.9,0-.07,.11-.14,.17-.21l.46,.59Z"/><path class="cls-20" d="M304.35,53.72c2.5-.27,3.04,1.29,3.13,3.29-1.6-.57-2.25-2.04-3.13-3.29Z"/><path class="cls-18" d="M324.79,70.87c1.83-1.12,3.83-.33,5.75-.52-1.79,1.57-3.78,.9-5.75,.52Z"/><path class="cls-25" d="M318.37,26.93c-.44-.6-.87-1.21-1.31-1.81,.08-.49,.21-1.26,.83-.66,.65,.63,2.32,1.07,1.08,2.56-.26,.36-.46,.33-.59-.1Z"/><path class="cls-20" d="M310.65,60.14c1.69,.07,2,1.17,1.93,2.56-1.62-.13-1.98-1.19-1.93-2.56Z"/><path class="cls-14" d="M305.54,14.96c.24,.4,.49,.81,.73,1.21-1.31-.42-2.61-.83-3.92-1.25,.01-.47,.03-.94,.04-1.41,1.05,.48,2.09,.97,3.14,1.45Z"/><path class="cls-62" d="M326.82,39.07c-1.57-.54-2.25-1.63-2.04-3.27,1.25,.74,1.91,1.84,2.04,3.27Z"/><path class="cls-52" d="M316.55,25.08c-1.4-.37-2.28-1.26-2.66-2.65,1.45,.32,2.33,1.21,2.66,2.65Z"/><path class="cls-14" d="M318.37,26.93c.19,.06,.39,.09,.59,.1,.48,.83,1.32,1.46,1.4,2.51-1.79-.01-2.1-1.15-2-2.6Z"/><path class="cls-20" d="M308.77,18.05c.21,.04,.42,.05,.63,.02,.33,.79,1.58,.39,1.76,1.36-2.15,1.86-2-.23-2.39-1.38Z"/><path class="cls-15" d="M330.52,70.37c.73-.98,1.07-2.34,2.57-2.55-.29,1.42-1.12,2.3-2.57,2.55Z"/><path class="cls-59" d="M334.35,63.95h-.66c-.49-1.28-.49-2.55,0-3.83,.24,0,.47-.02,.71-.03-.02,1.29-.03,2.57-.05,3.86Z"/><path class="cls-20" d="M308.73,58.22c1.24,.04,1.89,.68,1.93,1.92-1.22-.06-1.82-.75-1.93-1.92Z"/><path class="cls-53" d="M253.68,40.98c-1.21-4.43-.51-8.95-.45-13.41,.03-2.71-.66-4.33-3.29-5,.82-.5,1.65-.43,2.49-.05,.18-.11,.36-.22,.54-.34,.93,.17,1.86,.34,2.79,.5-.05,.15-.1,.3-.15,.45-.38,.73-1.31,.04-1.73,.66,.91,5.74,.42,11.46-.19,17.18Z"/><path class="cls-41" d="M264,15.55c0-.21,0-.42,0-.63,3.05-.33,5.96,.64,9.73,.86-3.81,1.04-6.73-.72-9.73-.22Z"/><path class="cls-49" d="M244.19,20.17h4.45v.3h-4.45v-.3Z"/><path class="cls-17" d="M275.51,20.16c.81,.95-.43,1.18-.64,1.77-.15,1.5-.79,1-1.47,.36,.05-.81,.16-1.61,.84-2.18l1.27,.06Z"/><path class="cls-20" d="M274.24,20.1c-.04,.67,.08,1.4-.65,1.82-.19,.3-.37,.31-.56,0-.27-.67-.96-.56-1.47-.79,.94-.24,1.55-1.32,2.69-1.04Z"/><path class="cls-6" d="M269.1,21.25c-.36,.05-.73,.1-1.09,.14-.91-.1-1.83-.2-2.74-.3,1.31-.38,2.63-.9,3.83,.16Z"/><path class="cls-38" d="M276.16,15.5c1.37,.88,.3,2.14,.51,3.2-.91-.95-.4-2.13-.51-3.2Z"/><path class="cls-62" d="M273.02,21.93c.19,0,.38,0,.56,0,.43,.67,.85,.66,1.29,0-.42,5.39,.44,10.82-.4,16.62-1.27-1.2-.78-2.41-.88-3.45-.36-3.96,.69-7.98-.61-11.89,.01-.43,.03-.86,.04-1.28Z"/><path class="cls-24" d="M253.87,23.8c.28-1.01,1.14-.49,1.73-.66,1.29,.33,2.78-.48,3.92,.69-1.48,.51-2.96,.44-4.44,.04l-1.21-.07Z"/><path class="cls-23" d="M255.08,23.87c1.48-.01,2.96-.02,4.44-.04-1.47,1.11-2.95,.9-4.44,.04Z"/><path class="cls-13" d="M287.1,2.5c.66,.32,.62,1,.72,1.56,.11,.62-.4,.61-.79,.5-.62-.17-.64-.73-.61-1.24,.02-.4,.13-.81,.68-.82Z"/><path class="cls-35" d="M282.48,21.61c-.8,.23-1.26,.39-1.73,.49-.57,.12-.7-.28-.62-.7,.13-.63,.68-.74,1.18-.62,.33,.08,.6,.41,1.17,.84Z"/><path class="cls-60" d="M244.81,41.02c.02-2.11,.04-4.22,.06-6.33,.9,2.12,.98,4.23-.06,6.33Z"/><path class="cls-19" d="M249.69,33.23c-.57-.28-1.11-.66-.85-1.37,.1-.3,.61-.7,.85-.66,.67,.13,.94,.69,.85,1.38-.06,.49-.4,.65-.85,.65Z"/><path class="cls-60" d="M244.87,27.61c-.05-1.47-.1-2.94-.14-4.41,1.21,1.43,1.01,2.91,.14,4.41Z"/><path class="cls-51" d="M252.42,22.52c-.83,.02-1.66,.03-2.49,.05-.24-.13-1.04-.3-.41-.5,.88-.28,2.07-.5,2.9,.46Z"/><path class="cls-12" d="M241.67,61.96c3.94,1.28,5.6,3.23,5.65,6.64,.05,3.36-1.71,5.86-4.9,6.97-2.76,.96-5.9-.13-7.83-2.71-2.95-3.95-.84-9.18,4.39-10.93,.9-.56,1.8-.57,2.69,.03Z"/><path class="cls-53" d="M241.67,61.96l-2.69-.03c.92-1.88,1.81-1.76,2.69,.03Z"/><path class="cls-7" d="M263.61,67.69c-2.7,.58-2-1.46-2.08-2.92-.08-1.53-.23-2.92,2.15-2.73,2.07,.16,3.67,.84,3.75,2.97,.09,2.37-1.67,2.89-3.83,2.68Z"/><path class="cls-9" d="M25.88,64.06l2.4,6.15c-1.74,.17-4.17,.81-4.45-.23-.48-1.78,.96-3.69,2.05-5.91Z"/><path class="cls-3" d="M76.87,70.75h-5.86c.4-1.69,1.34-2.5,2.92-2.47,1.54,.03,2.46,.83,2.93,2.47Z"/><path class="cls-4" d="M169.47,75.49c-3.01,.06-4.4-1.43-4.48-3.62-.08-2.29,1.46-3.77,3.83-3.76,2.17,0,3.61,1.2,3.74,3.48,.15,2.48-1.33,3.59-3.09,3.9Z"/><path class="cls-20" d="M331.05,48.06c-.73-.11-1.47-.3-1.58-1.15-.09-.7,.56-.7,1.05-.8,.72,.5,.58,1.23,.53,1.94Z"/><path class="cls-20" d="M317.37,34.19c-4.38-.52-8.3-2.17-11.09,.16-2.89,2.41-.73,6.61-1.66,10.31-3.18-2.54-4.28-6.21-5.84-9.33-1.95-3.91-3.22-8.21-4.37-12.49-.72-2.69,1.04-3.93,2.54-5.31,1.45-1.34,2.44,.29,3.57,.89,6.77,3.56,11.96,8.77,16.85,15.78Z"/><path class="cls-20" d="M319.34,38.32c4.79,4.2,6.83,9.8,8.87,15.39,.68,1.87,.82,4,1.79,5.68,1.57,2.71-.37,4.13-1.71,5.68-1.6,1.85-2.97-.11-4.48-.56-6.65-2.01-9.99-7.65-14.05-12.5-.38-.45-1.08-.98-.62-1.63,.51-.72,1.33-.38,2.04-.17,.1,.03,.19,.1,.3,.12,6.69,1.36,9.99-1.93,8.66-8.66-.22-1.12-.53-2.22-.8-3.33Z"/><path class="cls-4" d="M315.71,41.88c-1.2,1.12,.72,3.95-1.71,4-1.7,.03-2.68-2.05-3.64-3.53-.05-.08-.17-.12-.26-.18-.92-.87-.99-2.04-1.14-3.19,1.25-2.54,2.94-1.83,4.56-.51,1.07,.87,1.54,2.21,2.18,3.41Z"/><path class="cls-20" d="M315.71,41.88c-1.48-.27-1.59-1.8-2.45-2.63-1.22-1.17-2.52-2.41-3.91-.14-.49,.07-1,.09-1.24,.64-1.35-1.18-.17-1.92,.5-2.71,.81-.95,1.86-1.52,3.04-.84,2.19,1.26,4.41,2.58,4.05,5.68Z"/><path class="cls-61" d="M308.11,39.75c-.04-1.08,.53-.99,1.24-.64,.25,1.02,.5,2.04,.75,3.06-2.27,.5-.67-2.15-1.99-2.42Z"/><path class="cls-20" d="M332.41,53.76c.37,1.46,.84,2.91,.64,4.46-.62-1.43-1.74-2.78-.64-4.46Z"/><path class="cls-20" d="M316.74,42.5c.4,1.32,.44,2.11,.03,3.13-.54-.99-.38-1.81-.03-3.13Z"/><path class="cls-20" d="M333.69,60.13c0,1.27,0,2.55,0,3.82-.98-1.27-.97-2.55,0-3.82Z"/></g></g></g></svg>