<?xml version="1.0" encoding="UTF-8"?><svg id="Layer_1" xmlns="http://www.w3.org/2000/svg" viewBox="0 0 60 60"><defs><style>.cls-1{fill:#fff;}.cls-2{fill:#40d045;}</style></defs><g id="Whatsapp_Icon"><rect class="cls-2" width="60" height="60" rx="5" ry="5"/><g id="logo"><path class="cls-1" d="M45.21,13.87c-4.04-4.04-9.4-6.27-15.12-6.27-11.78,0-21.37,9.59-21.38,21.37,0,3.77,.98,7.44,2.85,10.68l-3.03,11.07,11.33-2.97c3.12,1.7,6.64,2.6,10.22,2.6h0c11.78,0,21.37-9.59,21.38-21.37,0-5.71-2.22-11.08-6.26-15.12Zm-15.12,32.88h0c-3.19,0-6.32-.86-9.04-2.48l-.65-.38-6.73,1.76,1.8-6.55-.42-.67c-1.78-2.83-2.72-6.1-2.72-9.45,0-9.79,7.97-17.76,17.78-17.76,4.75,0,9.21,1.85,12.56,5.21,3.35,3.36,5.2,7.82,5.2,12.57,0,9.79-7.97,17.76-17.77,17.76Zm9.75-13.3c-.53-.27-3.16-1.56-3.65-1.74-.49-.18-.85-.27-1.2,.27-.36,.53-1.38,1.74-1.69,2.09-.31,.36-.62,.4-1.16,.13-.53-.27-2.26-.83-4.3-2.65-1.59-1.42-2.66-3.16-2.97-3.7-.31-.53-.03-.82,.23-1.09,.24-.24,.53-.62,.8-.94,.27-.31,.36-.53,.53-.89,.18-.36,.09-.67-.04-.94-.13-.27-1.2-2.9-1.65-3.96-.43-1.04-.87-.9-1.2-.92-.31-.02-.67-.02-1.02-.02s-.93,.13-1.42,.67-1.87,1.83-1.87,4.45,1.91,5.17,2.18,5.52c.27,.36,3.77,5.75,9.13,8.06,1.27,.55,2.27,.88,3.05,1.12,1.28,.41,2.44,.35,3.36,.21,1.03-.15,3.16-1.29,3.61-2.54,.45-1.25,.45-2.32,.31-2.54-.13-.22-.49-.36-1.02-.62Z"/></g></g></svg>