<?xml version="1.0" encoding="UTF-8"?><svg id="Layer_2" xmlns="http://www.w3.org/2000/svg" viewBox="0 0 340 135"><g id="Layer_1-2"><g id="ArgPrograma_Icon"><path d="M105.48,0H11.82C5.29,0,0,5.29,0,11.82V79.14c0,6.53,5.29,11.82,11.82,11.82H105.48c6.53,0,11.82-5.29,11.82-11.82V11.82c0-6.53-5.29-11.82-11.82-11.82ZM24.71,64l-.55-.46c-1.65-1.39-1.87-3.85-.48-5.51l12.74-15.16-12.73-15.15c-1.39-1.66-1.18-4.13,.48-5.53l.53-.44c1.66-1.39,4.13-1.18,5.53,.48l15.17,18.05c1.1,1.31,1.19,3.13,.37,4.52-.14,.31-.33,.61-.56,.88l-14.99,17.84c-1.39,1.65-3.85,1.87-5.51,.48Zm53.51,11.6h-29.27c-2.36,0-4.27-1.91-4.27-4.27s1.91-4.27,4.27-4.27h29.27c2.36,0,4.27,1.91,4.27,4.27s-1.91,4.27-4.27,4.27Z"/><g><path d="M155.18,20.81h10.3l9.63,30.67h-7.5l-2.35-7.97h-9.85l-2.35,7.97h-7.5l9.63-30.67Zm8.42,16.81s-2.75-9.82-3.3-12.3c-.5,2.48-3.25,12.3-3.25,12.3h6.55Z"/><path d="M177.66,28.09h5.76l.23,2.75c1.69-2.03,1.83-2.53,3.98-2.53,1.01,0,3.32,.01,4.14,.24v5.76c-.78-.18-2.94,0-3.72,0-1.78,0-2.44,1.03-3.77,2.43v14.74h-6.63V28.09Z"/><path d="M172.57,67.92h5.76l.23,2.75c1.69-2.03,1.83-2.53,3.98-2.53,1.01,0,3.32,.01,4.14,.24v5.76c-.78-.18-2.94,0-3.72,0-1.78,0-2.44,1.03-3.77,2.43v14.74h-6.63v-23.39Z"/><path d="M240.23,67.92h5.76l.23,2.75c1.69-2.03,1.83-2.53,3.98-2.53,1.01,0,3.32,.01,4.14,.24v5.76c-.78-.18-2.94,0-3.72,0-1.78,0-2.44,1.03-3.77,2.43v14.74h-6.63v-23.39Z"/><path d="M195.17,54.42c2.33,.54,5.54,1.04,7.91,1.04,2.61,0,4.33-1.13,4.33-3.34v-1.67c-1.02,.54-2.56,1.04-4.05,1.04-5.82,0-10.25-4.74-10.25-11.92s4.43-12.06,11.04-12.06c4.24,0,6.9,1.08,10.02,2.62v21.81c0,5.55-4.47,8.71-10.86,8.71-2.38,0-5.77-.45-8.15-.99v-5.24Zm12.25-21.13c-.89-.36-1.68-.59-2.89-.59-3.08,0-4.43,3.39-4.43,6.86,0,4.11,1.58,6.73,4.19,6.73,1.17,0,2.24-.36,3.12-.9v-12.1Z"/><path d="M215.77,94.84c2.33,.54,5.54,1.04,7.91,1.04,2.61,0,4.33-1.13,4.33-3.34v-1.67c-1.02,.54-2.56,1.04-4.05,1.04-5.82,0-10.25-4.74-10.25-11.92s4.43-12.06,11.04-12.06c4.24,0,6.9,1.08,10.02,2.62v21.81c0,5.55-4.47,8.71-10.86,8.71-2.38,0-5.77-.45-8.15-.99v-5.24Zm12.25-21.13c-.89-.36-1.68-.59-2.89-.59-3.08,0-4.43,3.39-4.43,6.86,0,4.11,1.58,6.73,4.19,6.73,1.17,0,2.24-.36,3.12-.9v-12.1Z"/><path d="M237.59,50.76c-2.74,.86-4.66,1.31-7.45,1.31-8.5,0-11.81-5.55-11.81-12.33s2.75-12.24,10.16-12.24,10.7,4.76,10.7,13.97h-14.36c.23,3.84,1.28,5.4,5.53,5.4,2.65,0,4.44-.45,6.9-1.17l.32,5.06Zm-5.26-14.09c-.41-2.66-1.28-4.2-3.7-4.2s-2.97,1.76-3.42,4.2h7.13Z"/><path d="M269.31,33.92h-3.59v-5.16h3.59v-8.1h6.63v8.1h5.73l-.05,5.16h-5.68v10.03c0,1.99,.28,2.16,2.11,2.16,1.14,0,3.88-.2,3.88-.2v5.49c-1.6,.45-2.97,.68-4.57,.68-4.07,0-8.05-2.08-8.05-7.77v-10.39Z"/><path d="M288.49,18.5c2.15,0,3.7,1.49,3.7,3.57s-1.55,3.61-3.7,3.61-3.7-1.54-3.7-3.61,1.55-3.57,3.7-3.57Zm-3.29,9.59h6.63v23.39h-6.63V28.09Z"/><path d="M296.47,28.09h6.16l.19,2.57c1.52-1.26,3.7-2.35,6.16-2.35,5.22,0,8.2,2.84,8.2,8.17v14.99h-6.87v-13.85c0-2.26-.62-3.57-2.61-3.57-1.66,0-3.18,.95-4.36,2.03v15.39h-6.87V28.09Z"/><path d="M333.96,50.18c-1.42,1.22-3.54,1.31-5.51,1.31-4.89,0-7.71-2.38-7.71-6.76s3.57-7.37,9.14-7.37c1.19,0,2.47-.28,3.47-.05v-1.26c0-1.94-.48-2.78-2.99-2.78-2.24,0-5.4-.2-7.55,.44l-.06-4.97c2.42-.72,5.08-.63,7.73-.63,5.85,0,9.51,2.53,9.51,8.22v15.17h-5.85l-.18-1.31Zm-.59-8.71c-.69-.18-1.51-.27-2.38-.27-2.24,0-3.38,.99-3.38,2.71,0,1.81,.82,2.98,2.7,2.98,1.14,0,2.06-.45,3.06-1.22v-4.2Z"/><path d="M327.95,90.59c-1.42,1.22-3.54,1.31-5.51,1.31-4.89,0-7.71-2.38-7.71-6.76s3.57-7.37,9.14-7.37c1.19,0,2.47-.28,3.47-.05v-1.26c0-1.94-.48-2.78-2.99-2.78-2.24,0-5.4-.2-7.55,.44l-.06-4.97c2.42-.72,5.08-.63,7.73-.63,5.85,0,9.51,2.53,9.51,8.22v15.17h-5.85l-.18-1.31Zm-.59-8.71c-.69-.18-1.51-.27-2.38-.27-2.24,0-3.38,.99-3.38,2.71,0,1.81,.82,2.98,2.7,2.98,1.14,0,2.06-.45,3.06-1.22v-4.2Z"/><path d="M267.88,90.59c-1.42,1.22-3.54,1.31-5.51,1.31-4.89,0-7.71-2.38-7.71-6.76s3.57-7.37,9.14-7.37c1.19,0,2.47-.28,3.47-.05v-1.26c0-1.94-.48-2.78-2.99-2.78-2.24,0-5.4-.2-7.55,.44l-.06-4.97c2.42-.72,5.08-.63,7.73-.63,5.85,0,9.51,2.53,9.51,8.22v15.17h-5.85l-.18-1.31Zm-.59-8.71c-.69-.18-1.51-.27-2.38-.27-2.24,0-3.38,.99-3.38,2.71,0,1.81,.82,2.98,2.7,2.98,1.14,0,2.06-.45,3.06-1.22v-4.2Z"/><path d="M147.43,68.51h6.23l.2,1.31c1.46-1.04,3.07-1.9,5.36-1.9,6.33,0,10.18,5.46,10.18,12.24,0,7.13-4.29,11.85-10.57,11.85-1.61,0-3.12-.07-4.34-.61v9.08h-7.06v-31.97Zm7.06,17.75c.88,.59,1.9,.37,3.26,.37,2.53,0,4.34-1.95,4.34-6.43s-1.51-6.46-4.34-6.46c-1.36,0-2.24,.5-3.26,1.26v11.25Z"/><path d="M188.94,80.21c0-6.73,3.37-12.28,10.73-12.28s10.73,5.64,10.73,12.33-3.37,12.24-10.73,12.24-10.73-5.51-10.73-12.28Zm14.97,0c0-4.56-1.25-7.09-4.24-7.09s-4.24,2.53-4.24,7.09,1.21,7.09,4.24,7.09,4.24-2.53,4.24-7.09Z"/><path d="M279.5,68.51h5.94l.18,1.94c1.28-1.17,3.25-2.14,5.76-2.14,3.11,0,5.03,.83,6.08,2.73,1.46-1.63,3.79-2.73,6.4-2.73,5.4,0,7.22,3.31,7.22,7.2v16.39h-6.63v-14.16c0-2.35-.27-3.52-2.1-3.52-1.33,0-2.79,1.13-3.8,2.08,.05,.32,.05-.43,.05-.06v15.67h-6.63v-14.16c0-2.35-.27-3.52-2.1-3.52-1.37,0-2.74,1.08-3.75,2.03v15.65h-6.63v-23.39Z"/><path d="M242.66,28.09h6.16l.19,2.57c1.52-1.26,3.7-2.35,6.16-2.35,5.22,0,8.2,2.84,8.2,8.17v14.99h-6.87v-13.85c0-2.26-.62-3.57-2.61-3.57-1.66,0-3.18,.95-4.36,2.03v15.39h-6.87V28.09Z"/></g><g><path d="M148.41,125.45h-1.77v-2.73h2.17l.48-3.34h-1.74v-2.7h2.15l.61-4.17h2.91l-.63,4.17h2.75l.63-4.17h2.93l-.63,4.17h1.82v2.7h-2.22l-.48,3.34h1.77v2.73h-2.17l-.66,4.42h-2.91l.63-4.42h-2.75l-.63,4.42h-2.88l.63-4.42Zm6.04-2.73l.51-3.34h-2.75l-.51,3.34h2.75Z"/><path d="M167.18,123.37l-5.66-10.41h4.12l1.72,3.56c.46,.93,1.16,2.22,1.67,3.41,.51-1.21,1.26-2.45,1.72-3.41l1.72-3.56h4.14l-5.66,10.41v6.5h-3.77v-6.5Z"/><path d="M175.8,123.32c0-3.77,1.97-6.87,6.27-6.87s6.27,3.16,6.27,6.9-1.97,6.85-6.27,6.85-6.27-3.08-6.27-6.87Zm8.74,0c0-2.55-.73-3.97-2.48-3.97s-2.48,1.42-2.48,3.97,.71,3.97,2.48,3.97,2.48-1.42,2.48-3.97Z"/><path d="M190.93,112.96h5.11c3.66,0,6.07,2.02,6.07,5.48s-2.53,5.41-6.07,5.41h-1.34v6.02h-3.77v-16.91Zm4.8,8.01c1.74,0,2.5-1.01,2.5-2.53s-.78-2.55-2.5-2.55h-1.04v5.08h1.04Z"/><path d="M204.4,116.78h3.18l.13,1.54c.94-1.14,2-1.87,3.18-1.87,.56,0,1.11,.1,1.57,.23l-.53,2.83c-.43-.1-.81-.15-1.24-.15-.99,0-1.9,.81-2.63,1.59v8.92h-3.66v-13.09Z"/><path d="M213.45,123.32c0-3.77,1.97-6.87,6.27-6.87s6.27,3.16,6.27,6.9-1.97,6.85-6.27,6.85-6.27-3.08-6.27-6.87Zm8.74,0c0-2.55-.73-3.97-2.48-3.97s-2.48,1.42-2.48,3.97,.71,3.97,2.48,3.97,2.48-1.42,2.48-3.97Z"/><path d="M229.54,131.51c1.26,.3,2.48,.58,3.77,.58,1.42,0,2.35-.63,2.35-1.87v-.94c-.56,.3-1.39,.58-2.2,.58-3.16,0-5.56-2.65-5.56-6.67s2.4-6.75,5.99-6.75c2.3,0,3.74,.61,5.43,1.47v12.21c0,3.11-2.43,4.88-5.89,4.88-1.29,0-2.6-.25-3.89-.56v-2.93Zm6.12-11.83c-.48-.2-.91-.33-1.57-.33-1.67,0-2.4,1.9-2.4,3.84,0,2.3,.86,3.77,2.27,3.77,.63,0,1.21-.2,1.69-.51v-6.77Z"/><path d="M242.4,116.78h3.18l.13,1.54c.94-1.14,2-1.87,3.18-1.87,.56,0,1.11,.1,1.57,.23l-.53,2.83c-.43-.1-.81-.15-1.24-.15-.99,0-1.9,.81-2.63,1.59v8.92h-3.66v-13.09Z"/><path d="M258.37,129.14c-.78,.68-1.9,1.06-2.98,1.06-2.7,0-4.32-2-4.32-4.45s1.97-3.97,5.05-3.97c.66,0,1.36,.03,1.92,.15v-.71c0-1.09-.35-1.87-1.74-1.87-1.24,0-2.15,.2-3.34,.56l-.78-2.78c1.34-.4,2.81-.68,4.27-.68,3.23,0,5.26,1.74,5.26,4.93v8.49h-3.23l-.1-.73Zm-.33-4.88c-.38-.1-.83-.15-1.31-.15-1.24,0-1.87,.56-1.87,1.52,0,1.01,.46,1.67,1.49,1.67,.63,0,1.14-.25,1.69-.68v-2.35Z"/><path d="M264.66,116.78h3.29l.1,1.09c.71-.66,1.79-1.42,3.18-1.42,1.72,0,2.78,.68,3.36,1.74,.81-.91,2.1-1.74,3.54-1.74,2.98,0,3.99,2.07,3.99,4.25v9.17h-3.66v-8.54c0-1.31-.15-1.97-1.16-1.97-.73,0-1.54,.63-2.1,1.16,.03,.18,.03,.38,.03,.58v8.77h-3.66v-8.54c0-1.31-.15-1.97-1.16-1.97-.76,0-1.52,.61-2.07,1.14v9.38h-3.66v-13.09Z"/><path d="M284.5,123.32c0-3.77,1.97-6.87,6.27-6.87s6.27,3.16,6.27,6.9-1.97,6.85-6.27,6.85-6.27-3.08-6.27-6.87Zm8.74,0c0-2.55-.73-3.97-2.48-3.97s-2.48,1.42-2.48,3.97,.71,3.97,2.48,3.97,2.48-1.42,2.48-3.97Z"/></g></g></g></svg>